<svg width="64" height="64" viewBox="0 0 64 64" fill="none" xmlns="http://www.w3.org/2000/svg">
<path d="M0 8C0 3.58173 3.58172 0 8 0H55.9999C60.4182 0 63.9999 3.58172 63.9999 8V55.9999C63.9999 60.4182 60.4182 63.9999 55.9999 63.9999H8C3.58173 63.9999 0 60.4182 0 55.9999V8Z" fill="white"/>
<path d="M19.2075 33.0497H17.1907C15.904 33.0497 14.8572 32.0096 14.8572 30.7311C14.8572 30.3427 14.5425 30.028 14.1541 30.028C13.7657 30.028 13.451 30.3427 13.451 30.7311C13.451 32.785 15.1286 34.456 17.1908 34.456H19.2075C19.5959 34.456 19.9106 34.1413 19.9106 33.7529C19.9106 33.3645 19.5959 33.0497 19.2075 33.0497Z" fill="#176FC0"/>
<path d="M25.8147 38.2536H19.808C17.824 38.2536 16.2099 39.8612 16.2099 41.8373C16.2099 42.2257 16.5247 42.5404 16.9131 42.5404C17.3015 42.5404 17.6162 42.2256 17.6162 41.8373C17.6162 40.6367 18.5993 39.6599 19.808 39.6599H25.8147C26.2031 39.6599 26.5178 39.3452 26.5178 38.9568C26.5178 38.5684 26.2031 38.2536 25.8147 38.2536Z" fill="#176FC0"/>
<path d="M31.5423 38.2536H28.6258C28.2374 38.2536 27.9227 38.5684 27.9227 38.9568C27.9227 39.3452 28.2374 39.6599 28.6258 39.6599H31.5423C31.9307 39.6599 32.2454 39.3452 32.2454 38.9568C32.2454 38.5684 31.9306 38.2536 31.5423 38.2536Z" fill="#176FC0"/>
<path d="M26.5991 24.5916C26.2107 24.5916 25.896 24.9064 25.896 25.2947C25.896 27.3052 24.2506 28.9409 22.2283 28.9409C21.8399 28.9409 21.5252 29.2556 21.5252 29.644C21.5252 30.0324 21.8399 30.3471 22.2283 30.3471C25.0261 30.3471 27.3022 28.0807 27.3022 25.2947C27.3022 24.9064 26.9875 24.5916 26.5991 24.5916Z" fill="#176FC0"/>
<path d="M25.303 13.9621C23.6234 13.8543 22.1671 15.1277 22.0581 16.8017C22.0329 17.1893 22.3266 17.5238 22.7141 17.5491C22.7297 17.5501 22.7451 17.5506 22.7605 17.5506C23.128 17.5506 23.4372 17.265 23.4615 16.8931C23.52 15.9924 24.3056 15.3083 25.2126 15.3655C25.6005 15.3914 25.9345 15.0966 25.9594 14.709C25.9845 14.3215 25.6906 13.9871 25.303 13.9621Z" fill="#176FC0"/>
<path d="M22.9384 41.3847C22.55 41.3847 22.2352 41.6994 22.2352 42.0878C22.2352 42.4762 22.55 42.7909 22.9384 42.7909C24.0994 42.7909 25.0441 43.7293 25.0441 44.8826C25.0441 46.0362 24.0994 46.9745 22.9384 46.9745C22.55 46.9745 22.2352 47.2892 22.2352 47.6776C22.2352 48.066 22.55 48.3808 22.9384 48.3808C24.8749 48.3808 26.4503 46.8116 26.4503 44.8826C26.4503 42.9539 24.8749 41.3847 22.9384 41.3847Z" fill="#176FC0"/>
<path d="M30.1333 24.8275C29.7449 24.8275 29.4301 25.1422 29.4301 25.5306C29.4301 25.919 29.7449 26.2337 30.1333 26.2337C31.066 26.2337 31.8249 26.9872 31.8249 27.9135C31.8249 28.8398 31.066 29.5934 30.1333 29.5934C29.7449 29.5934 29.4301 29.9081 29.4301 30.2965C29.4301 30.6849 29.7449 30.9996 30.1333 30.9996C31.8415 30.9996 33.2311 29.6151 33.2311 27.9135C33.2311 26.2119 31.8415 24.8275 30.1333 24.8275Z" fill="#176FC0"/>
<path d="M17.7482 20.3569C17.3597 20.3569 17.045 20.6716 17.045 21.06C17.045 21.4484 17.3597 21.7631 17.7482 21.7631C19.3507 21.7631 20.6544 23.0588 20.6544 24.6514C20.6544 26.2441 19.3507 27.5398 17.7482 27.5398C17.3597 27.5398 17.045 27.8545 17.045 28.2429C17.045 28.6313 17.3597 28.9461 17.7482 28.9461C20.126 28.9461 22.0606 27.0195 22.0606 24.6514C22.0606 22.2834 20.126 20.3569 17.7482 20.3569Z" fill="#176FC0"/>
<path d="M50.8016 20.3251C49.48 20.3251 48.4048 21.3966 48.4048 22.7136C48.4048 24.0307 49.48 25.1021 50.8016 25.1021C52.1232 25.1021 53.1984 24.0307 53.1984 22.7136C53.1984 21.3966 52.1232 20.3251 50.8016 20.3251ZM50.8017 23.696C50.2555 23.696 49.8111 23.2554 49.8111 22.7137C49.811 22.1721 50.2554 21.7315 50.8017 21.7315C51.3479 21.7315 51.7923 22.1721 51.7923 22.7137C51.7923 23.2553 51.3479 23.696 50.8017 23.696Z" fill="#176FC0"/>
<path d="M53.1524 38.3205C51.8307 38.3205 50.7556 39.392 50.7556 40.7091C50.7556 42.0262 51.8308 43.0975 53.1524 43.0975C54.474 43.0975 55.5491 42.0261 55.5491 40.7091C55.5491 39.3921 54.474 38.3205 53.1524 38.3205ZM53.1524 41.6913C52.6062 41.6913 52.1618 41.2507 52.1618 40.7091C52.1618 40.1675 52.6062 39.7268 53.1524 39.7268C53.6985 39.7268 54.1428 40.1674 54.1428 40.7091C54.1429 41.2507 53.6985 41.6913 53.1524 41.6913Z" fill="#176FC0"/>
<path d="M51.6762 29.8936C51.2706 29.8937 50.8885 29.9949 50.5532 30.173L49.1826 28.8091C48.9072 28.5352 48.4621 28.5364 48.1883 28.8115C47.9143 29.0868 47.9155 29.5319 48.1907 29.8058L49.5579 31.1662C49.3804 31.4996 49.2793 31.8792 49.2793 32.2821C49.2793 33.5991 50.3546 34.6706 51.6762 34.6706C52.9978 34.6706 54.073 33.5991 54.073 32.2821C54.073 30.9651 52.9977 29.8936 51.6762 29.8936ZM51.6762 33.2645C51.1301 33.2645 50.6857 32.8238 50.6857 32.2821C50.6857 31.7406 51.1301 31.2999 51.6762 31.2999C52.2224 31.2999 52.6668 31.7406 52.6668 32.2821C52.6668 32.8237 52.2224 33.2645 51.6762 33.2645Z" fill="#176FC0"/>
<path d="M50.0923 45.6599C48.7706 45.6599 47.6955 46.7313 47.6955 48.0484C47.6955 49.3655 48.7707 50.437 50.0923 50.437C51.4139 50.437 52.4891 49.3655 52.4891 48.0484C52.4891 46.7313 51.4139 45.6599 50.0923 45.6599ZM50.0923 49.0306C49.5461 49.0306 49.1017 48.59 49.1017 48.0483C49.1017 47.5067 49.5461 47.066 50.0923 47.066C50.6384 47.066 51.0828 47.5066 51.0828 48.0483C51.0829 48.59 50.6385 49.0306 50.0923 49.0306Z" fill="#176FC0"/>
<path d="M41.8653 21.2136C42.3122 21.2136 42.8455 20.9934 43.1622 20.6783L45.8785 17.9753C46.1515 18.0832 46.4485 18.1432 46.7595 18.1432C48.0812 18.1432 49.1563 17.0717 49.1563 15.7546C49.1563 14.4376 48.0811 13.3662 46.7595 13.3662C45.4379 13.3662 44.3628 14.4377 44.3628 15.7546C44.3628 16.2491 44.5144 16.7092 44.7739 17.0907L42.1705 19.6812C42.1155 19.734 41.9413 19.806 41.8653 19.8073H36.0616V15.1529H37.6941C37.9961 16.1278 38.9086 16.8384 39.9848 16.8384C41.3065 16.8384 42.3816 15.7669 42.3816 14.4498C42.3816 13.1328 41.3064 12.0613 39.9848 12.0613C38.9086 12.0613 37.9961 12.7718 37.6941 13.7467H36.0616V13.6402C36.0616 10.5301 33.5205 8 30.397 8C28.164 8 26.161 9.30144 25.2469 11.2914C25.1064 11.2814 24.9662 11.2764 24.8272 11.2764C21.5808 11.2764 18.931 13.8682 18.8557 17.0829C18.5754 17.0429 18.2919 17.0228 18.0072 17.0228C14.7136 17.0228 12.0341 19.6907 12.0341 22.97C12.0341 23.6898 12.1604 24.3863 12.4101 25.0488C9.95164 26.5075 8.45117 29.1134 8.45117 32C8.45117 33.5498 8.89264 35.0564 9.72776 36.3566C10.4157 37.4276 11.3425 38.3191 12.4326 38.9643C12.1707 39.6431 12.0341 40.37 12.0341 41.1C12.0341 42.5477 12.5627 43.9427 13.5224 45.0283C13.7795 45.3192 14.2239 45.3466 14.5149 45.0893C14.8059 44.8321 14.8332 44.3878 14.5759 44.0968C13.8436 43.2685 13.4403 42.2042 13.4403 41.0999C13.4403 40.357 13.6159 39.6484 13.9617 38.9937C14.3744 38.2099 15.0155 37.548 15.8266 37.1089C16.1681 36.9239 16.2949 36.4972 16.11 36.1558C15.9251 35.8142 15.4983 35.6871 15.1569 35.8724C14.317 36.3274 13.6168 36.9653 13.0932 37.7206C11.0826 36.5111 9.85742 34.3726 9.85742 32C9.85742 29.4631 11.2625 27.1889 13.5311 26.0378C13.5311 26.0378 14.8438 25.3075 16.5864 25.3075C16.9748 25.3075 17.2895 24.9928 17.2895 24.6044C17.2895 24.216 16.9748 23.9013 16.5864 23.9013C15.5649 23.9013 14.5871 24.0902 13.6856 24.434C13.524 23.9652 13.4405 23.4754 13.4405 22.9701C13.4405 20.4661 15.4892 18.4291 18.0074 18.4291C18.4807 18.4291 18.949 18.5016 19.3992 18.6445C19.6299 18.7178 19.882 18.6672 20.0666 18.5107C20.2513 18.3541 20.3424 18.1137 20.3078 17.8741C20.2764 17.6559 20.2605 17.437 20.2605 17.2237C20.2605 14.7198 22.3092 12.6827 24.8274 12.6827C25.0747 12.6827 25.3275 12.7039 25.579 12.7452C27.7407 13.1028 29.3942 14.9743 29.3942 17.2237C29.3942 17.6121 29.7089 17.9268 30.0973 17.9268C30.4858 17.9268 30.8005 17.6121 30.8005 17.2237C30.8005 14.5891 29.0703 12.3506 26.6821 11.572C27.4245 10.2518 28.8355 9.40625 30.397 9.40625C32.745 9.40625 34.6554 11.3056 34.6554 13.6402V13.7183H33.303C32.9146 13.7183 32.5999 14.033 32.5999 14.4214C32.5999 14.8098 32.9146 15.1245 33.303 15.1245H34.6554V19.8072H28.9685C27.6818 19.8072 26.635 18.7672 26.635 17.4888C26.635 17.1004 26.3203 16.7857 25.9319 16.7857C25.5435 16.7857 25.2287 17.1004 25.2287 17.4888C25.2287 19.5426 26.9064 21.2135 28.9685 21.2135H34.6554V33.05H23.25C22.8616 33.05 22.5468 33.3647 22.5468 33.7531C22.5468 34.1415 22.8616 34.4562 23.25 34.4562H34.6554V44.1102H32.4826C30.4987 44.1102 28.8847 45.7177 28.8847 47.6938C28.8847 48.0822 29.1994 48.3969 29.5878 48.3969C29.9762 48.3969 30.2909 48.0822 30.2909 47.6938C30.2909 46.4932 31.2741 45.5164 32.4826 45.5164H34.6554V50.3597C34.6554 50.4702 34.6497 50.5793 34.6414 50.6876H33.303C32.9146 50.6876 32.5999 51.0023 32.5999 51.3907C32.5999 51.7791 32.9146 52.0938 33.303 52.0938H34.2803C33.6127 53.5659 32.1238 54.5937 30.397 54.5937C28.846 54.5937 27.4402 53.7569 26.694 52.4493C27.5433 52.1719 28.3249 51.7056 28.9834 51.0704C29.2629 50.8007 29.2709 50.3556 29.0012 50.0762C28.7316 49.7966 28.2865 49.7887 28.0071 50.0583C27.3357 50.7061 26.4963 51.1244 25.59 51.2755C25.3344 51.3182 25.0778 51.34 24.8272 51.34C22.309 51.34 20.2603 49.3029 20.2603 46.7989C20.2603 46.7349 20.2641 46.6684 20.2672 46.6026C20.8348 46.3716 21.3679 46.0555 21.8434 45.6586C22.1416 45.4097 22.1814 44.9663 21.9325 44.6682C21.6836 44.3701 21.2475 44.3392 20.9421 44.5791C19.5312 45.6874 18.1666 45.6702 17.6207 45.6249C17.2325 45.592 16.8939 45.8805 16.8617 46.2674C16.8295 46.6544 17.1172 46.9941 17.5042 47.0264C17.9537 47.0635 18.4117 47.0505 18.857 46.987C18.957 50.1797 21.5968 52.7462 24.8273 52.7462C24.9696 52.7462 25.1131 52.7409 25.2571 52.7304C26.1761 54.7072 28.1751 55.9999 30.397 55.9999C33.5204 55.9999 36.0616 53.4698 36.0616 50.3597V48.8059H39.7889C39.8652 48.8072 40.0394 48.8791 40.0943 48.9318L41.7706 50.5999C41.5438 50.9647 41.4125 51.3944 41.4125 51.8541C41.4125 53.1712 42.4877 54.2427 43.8093 54.2427C45.131 54.2427 46.2061 53.1712 46.2061 51.8541C46.2061 50.537 45.1309 49.4655 43.8093 49.4655C43.4618 49.4655 43.1317 49.5403 42.8332 49.6734L41.0861 47.935C40.7694 47.6198 40.2361 47.3997 39.7892 47.3997H36.0616V43.6411H42.1741C42.4761 44.616 43.3886 45.3265 44.4649 45.3265C45.7866 45.3265 46.8617 44.255 46.8617 42.9379C46.8617 41.6208 45.7865 40.5494 44.4649 40.5494C43.3887 40.5494 42.4761 41.2598 42.1741 42.2348H36.0616V37.5248H43.3762C43.6781 38.4997 44.5907 39.2103 45.6669 39.2103C46.9886 39.2103 48.0638 38.1388 48.0638 36.8217C48.0638 35.5046 46.9885 34.4331 45.6669 34.4331C44.5907 34.4331 43.6781 35.1436 43.3762 36.1186H36.0616V31.0009H37.8033C38.1054 31.9757 39.0179 32.6862 40.0941 32.6862C41.4158 32.6862 42.4909 31.6147 42.4909 30.2977C42.4909 28.9806 41.4157 27.9092 40.0941 27.9092C39.0179 27.9092 38.1053 28.6196 37.8033 29.5946H36.0616V25.537H43.7227C43.7989 25.5384 43.9732 25.6102 44.028 25.6629L45.4723 27.1003C45.6095 27.2368 45.7888 27.3051 45.9683 27.3051C46.1487 27.3051 46.3293 27.236 46.4666 27.0979C46.7406 26.8226 46.7394 26.3774 46.4642 26.1035L45.0199 24.6661C44.7031 24.3509 44.1699 24.1308 43.7229 24.1308H36.0616V21.2136H41.8653ZM46.7595 14.7724C47.3057 14.7724 47.7501 15.213 47.7501 15.7545C47.7501 16.2961 47.3057 16.7368 46.7595 16.7368C46.2133 16.7368 45.769 16.2962 45.769 15.7545C45.769 15.213 46.2133 14.7724 46.7595 14.7724ZM39.9848 13.4676C40.531 13.4676 40.9753 13.9082 40.9753 14.4498C40.9753 14.9914 40.531 15.4321 39.9848 15.4321C39.4386 15.4321 38.9943 14.9915 38.9943 14.4498C38.9942 13.9082 39.4386 13.4676 39.9848 13.4676ZM43.8093 50.8717C44.3555 50.8717 44.7999 51.3124 44.7999 51.854C44.7999 52.3956 44.3555 52.8363 43.8093 52.8363C43.2631 52.8363 42.8187 52.3957 42.8187 51.854C42.8187 51.3124 43.2631 50.8717 43.8093 50.8717ZM44.4649 41.9556C45.0111 41.9556 45.4554 42.3962 45.4554 42.9379C45.4554 43.4795 45.0111 43.9202 44.4649 43.9202C43.9187 43.9202 43.4743 43.4796 43.4743 42.9379C43.4743 42.3963 43.9187 41.9556 44.4649 41.9556ZM45.6669 35.8394C46.213 35.8394 46.6574 36.28 46.6574 36.8217C46.6574 37.3633 46.213 37.804 45.6669 37.804C45.1207 37.804 44.6763 37.3634 44.6763 36.8217C44.6763 36.28 45.1207 35.8394 45.6669 35.8394ZM40.0941 29.3154C40.6403 29.3154 41.0846 29.7561 41.0846 30.2977C41.0846 30.8392 40.6403 31.28 40.0941 31.28C39.5479 31.28 39.1035 30.8393 39.1035 30.2977C39.1035 29.7561 39.5479 29.3154 40.0941 29.3154Z" fill="#176FC0"/>
<path d="M19.2075 33.0497H17.1907C15.904 33.0497 14.8572 32.0096 14.8572 30.7311C14.8572 30.3427 14.5425 30.028 14.1541 30.028C13.7657 30.028 13.451 30.3427 13.451 30.7311C13.451 32.785 15.1286 34.456 17.1908 34.456H19.2075C19.5959 34.456 19.9106 34.1413 19.9106 33.7529C19.9106 33.3645 19.5959 33.0497 19.2075 33.0497Z" stroke="#176FC0" stroke-width="0.75"/>
<path d="M25.8147 38.2536H19.808C17.824 38.2536 16.2099 39.8612 16.2099 41.8373C16.2099 42.2257 16.5247 42.5404 16.9131 42.5404C17.3015 42.5404 17.6162 42.2256 17.6162 41.8373C17.6162 40.6367 18.5993 39.6599 19.808 39.6599H25.8147C26.2031 39.6599 26.5178 39.3452 26.5178 38.9568C26.5178 38.5684 26.2031 38.2536 25.8147 38.2536Z" stroke="#176FC0" stroke-width="0.75"/>
<path d="M31.5423 38.2536H28.6258C28.2374 38.2536 27.9227 38.5684 27.9227 38.9568C27.9227 39.3452 28.2374 39.6599 28.6258 39.6599H31.5423C31.9307 39.6599 32.2454 39.3452 32.2454 38.9568C32.2454 38.5684 31.9306 38.2536 31.5423 38.2536Z" stroke="#176FC0" stroke-width="0.75"/>
<path d="M26.5991 24.5916C26.2107 24.5916 25.896 24.9064 25.896 25.2947C25.896 27.3052 24.2506 28.9409 22.2283 28.9409C21.8399 28.9409 21.5252 29.2556 21.5252 29.644C21.5252 30.0324 21.8399 30.3471 22.2283 30.3471C25.0261 30.3471 27.3022 28.0807 27.3022 25.2947C27.3022 24.9064 26.9875 24.5916 26.5991 24.5916Z" stroke="#176FC0" stroke-width="0.75"/>
<path d="M25.303 13.9621C23.6234 13.8543 22.1671 15.1277 22.0581 16.8017C22.0329 17.1893 22.3266 17.5238 22.7141 17.5491C22.7297 17.5501 22.7451 17.5506 22.7605 17.5506C23.128 17.5506 23.4372 17.265 23.4615 16.8931C23.52 15.9924 24.3056 15.3083 25.2126 15.3655C25.6005 15.3914 25.9345 15.0966 25.9594 14.709C25.9845 14.3215 25.6906 13.9871 25.303 13.9621Z" stroke="#176FC0" stroke-width="0.75"/>
<path d="M22.9384 41.3847C22.55 41.3847 22.2352 41.6994 22.2352 42.0878C22.2352 42.4762 22.55 42.7909 22.9384 42.7909C24.0994 42.7909 25.0441 43.7293 25.0441 44.8826C25.0441 46.0362 24.0994 46.9745 22.9384 46.9745C22.55 46.9745 22.2352 47.2892 22.2352 47.6776C22.2352 48.066 22.55 48.3808 22.9384 48.3808C24.8749 48.3808 26.4503 46.8116 26.4503 44.8826C26.4503 42.9539 24.8749 41.3847 22.9384 41.3847Z" stroke="#176FC0" stroke-width="0.75"/>
<path d="M30.1333 24.8275C29.7449 24.8275 29.4301 25.1422 29.4301 25.5306C29.4301 25.919 29.7449 26.2337 30.1333 26.2337C31.066 26.2337 31.8249 26.9872 31.8249 27.9135C31.8249 28.8398 31.066 29.5934 30.1333 29.5934C29.7449 29.5934 29.4301 29.9081 29.4301 30.2965C29.4301 30.6849 29.7449 30.9996 30.1333 30.9996C31.8415 30.9996 33.2311 29.6151 33.2311 27.9135C33.2311 26.2119 31.8415 24.8275 30.1333 24.8275Z" stroke="#176FC0" stroke-width="0.75"/>
<path d="M17.7482 20.3569C17.3597 20.3569 17.045 20.6716 17.045 21.06C17.045 21.4484 17.3597 21.7631 17.7482 21.7631C19.3507 21.7631 20.6544 23.0588 20.6544 24.6514C20.6544 26.2441 19.3507 27.5398 17.7482 27.5398C17.3597 27.5398 17.045 27.8545 17.045 28.2429C17.045 28.6313 17.3597 28.9461 17.7482 28.9461C20.126 28.9461 22.0606 27.0195 22.0606 24.6514C22.0606 22.2834 20.126 20.3569 17.7482 20.3569Z" stroke="#176FC0" stroke-width="0.75"/>
<path d="M50.8016 20.3251C49.48 20.3251 48.4048 21.3966 48.4048 22.7136C48.4048 24.0307 49.48 25.1021 50.8016 25.1021C52.1232 25.1021 53.1984 24.0307 53.1984 22.7136C53.1984 21.3966 52.1232 20.3251 50.8016 20.3251ZM50.8017 23.696C50.2555 23.696 49.8111 23.2554 49.8111 22.7137C49.811 22.1721 50.2554 21.7315 50.8017 21.7315C51.3479 21.7315 51.7923 22.1721 51.7923 22.7137C51.7923 23.2553 51.3479 23.696 50.8017 23.696Z" stroke="#176FC0" stroke-width="0.75"/>
<path d="M53.1524 38.3205C51.8307 38.3205 50.7556 39.392 50.7556 40.7091C50.7556 42.0262 51.8308 43.0975 53.1524 43.0975C54.474 43.0975 55.5491 42.0261 55.5491 40.7091C55.5491 39.3921 54.474 38.3205 53.1524 38.3205ZM53.1524 41.6913C52.6062 41.6913 52.1618 41.2507 52.1618 40.7091C52.1618 40.1675 52.6062 39.7268 53.1524 39.7268C53.6985 39.7268 54.1428 40.1674 54.1428 40.7091C54.1429 41.2507 53.6985 41.6913 53.1524 41.6913Z" stroke="#176FC0" stroke-width="0.75"/>
<path d="M51.6762 29.8936C51.2706 29.8937 50.8885 29.9949 50.5532 30.173L49.1826 28.8091C48.9072 28.5352 48.4621 28.5364 48.1883 28.8115C47.9143 29.0868 47.9155 29.5319 48.1907 29.8058L49.5579 31.1662C49.3804 31.4996 49.2793 31.8792 49.2793 32.2821C49.2793 33.5991 50.3546 34.6706 51.6762 34.6706C52.9978 34.6706 54.073 33.5991 54.073 32.2821C54.073 30.9651 52.9977 29.8936 51.6762 29.8936ZM51.6762 33.2645C51.1301 33.2645 50.6857 32.8238 50.6857 32.2821C50.6857 31.7406 51.1301 31.2999 51.6762 31.2999C52.2224 31.2999 52.6668 31.7406 52.6668 32.2821C52.6668 32.8237 52.2224 33.2645 51.6762 33.2645Z" stroke="#176FC0" stroke-width="0.75"/>
<path d="M50.0923 45.6599C48.7706 45.6599 47.6955 46.7313 47.6955 48.0484C47.6955 49.3655 48.7707 50.437 50.0923 50.437C51.4139 50.437 52.4891 49.3655 52.4891 48.0484C52.4891 46.7313 51.4139 45.6599 50.0923 45.6599ZM50.0923 49.0306C49.5461 49.0306 49.1017 48.59 49.1017 48.0483C49.1017 47.5067 49.5461 47.066 50.0923 47.066C50.6384 47.066 51.0828 47.5066 51.0828 48.0483C51.0829 48.59 50.6385 49.0306 50.0923 49.0306Z" stroke="#176FC0" stroke-width="0.75"/>
<path d="M41.8653 21.2136C42.3122 21.2136 42.8455 20.9934 43.1622 20.6783L45.8785 17.9753C46.1515 18.0832 46.4485 18.1432 46.7595 18.1432C48.0812 18.1432 49.1563 17.0717 49.1563 15.7546C49.1563 14.4376 48.0811 13.3662 46.7595 13.3662C45.4379 13.3662 44.3628 14.4377 44.3628 15.7546C44.3628 16.2491 44.5144 16.7092 44.7739 17.0907L42.1705 19.6812C42.1155 19.734 41.9413 19.806 41.8653 19.8073H36.0616V15.1529H37.6941C37.9961 16.1278 38.9086 16.8384 39.9848 16.8384C41.3065 16.8384 42.3816 15.7669 42.3816 14.4498C42.3816 13.1328 41.3064 12.0613 39.9848 12.0613C38.9086 12.0613 37.9961 12.7718 37.6941 13.7467H36.0616V13.6402C36.0616 10.5301 33.5205 8 30.397 8C28.164 8 26.161 9.30144 25.2469 11.2914C25.1064 11.2814 24.9662 11.2764 24.8272 11.2764C21.5808 11.2764 18.931 13.8682 18.8557 17.0829C18.5754 17.0429 18.2919 17.0228 18.0072 17.0228C14.7136 17.0228 12.0341 19.6907 12.0341 22.97C12.0341 23.6898 12.1604 24.3863 12.4101 25.0488C9.95164 26.5075 8.45117 29.1134 8.45117 32C8.45117 33.5498 8.89264 35.0564 9.72776 36.3566C10.4157 37.4276 11.3425 38.3191 12.4326 38.9643C12.1707 39.6431 12.0341 40.37 12.0341 41.1C12.0341 42.5477 12.5627 43.9427 13.5224 45.0283C13.7795 45.3192 14.2239 45.3466 14.5149 45.0893C14.8059 44.8321 14.8332 44.3878 14.5759 44.0968C13.8436 43.2685 13.4403 42.2042 13.4403 41.0999C13.4403 40.357 13.6159 39.6484 13.9617 38.9937C14.3744 38.2099 15.0155 37.548 15.8266 37.1089C16.1681 36.9239 16.2949 36.4972 16.11 36.1558C15.9251 35.8142 15.4983 35.6871 15.1569 35.8724C14.317 36.3274 13.6168 36.9653 13.0932 37.7206C11.0826 36.5111 9.85742 34.3726 9.85742 32C9.85742 29.4631 11.2625 27.1889 13.5311 26.0378C13.5311 26.0378 14.8438 25.3075 16.5864 25.3075C16.9748 25.3075 17.2895 24.9928 17.2895 24.6044C17.2895 24.216 16.9748 23.9013 16.5864 23.9013C15.5649 23.9013 14.5871 24.0902 13.6856 24.434C13.524 23.9652 13.4405 23.4754 13.4405 22.9701C13.4405 20.4661 15.4892 18.4291 18.0074 18.4291C18.4807 18.4291 18.949 18.5016 19.3992 18.6445C19.6299 18.7178 19.882 18.6672 20.0666 18.5107C20.2513 18.3541 20.3424 18.1137 20.3078 17.8741C20.2764 17.6559 20.2605 17.437 20.2605 17.2237C20.2605 14.7198 22.3092 12.6827 24.8274 12.6827C25.0747 12.6827 25.3275 12.7039 25.579 12.7452C27.7407 13.1028 29.3942 14.9743 29.3942 17.2237C29.3942 17.6121 29.7089 17.9268 30.0973 17.9268C30.4858 17.9268 30.8005 17.6121 30.8005 17.2237C30.8005 14.5891 29.0703 12.3506 26.6821 11.572C27.4245 10.2518 28.8355 9.40625 30.397 9.40625C32.745 9.40625 34.6554 11.3056 34.6554 13.6402V13.7183H33.303C32.9146 13.7183 32.5999 14.033 32.5999 14.4214C32.5999 14.8098 32.9146 15.1245 33.303 15.1245H34.6554V19.8072H28.9685C27.6818 19.8072 26.635 18.7672 26.635 17.4888C26.635 17.1004 26.3203 16.7857 25.9319 16.7857C25.5435 16.7857 25.2287 17.1004 25.2287 17.4888C25.2287 19.5426 26.9064 21.2135 28.9685 21.2135H34.6554V33.05H23.25C22.8616 33.05 22.5468 33.3647 22.5468 33.7531C22.5468 34.1415 22.8616 34.4562 23.25 34.4562H34.6554V44.1102H32.4826C30.4987 44.1102 28.8847 45.7177 28.8847 47.6938C28.8847 48.0822 29.1994 48.3969 29.5878 48.3969C29.9762 48.3969 30.2909 48.0822 30.2909 47.6938C30.2909 46.4932 31.2741 45.5164 32.4826 45.5164H34.6554V50.3597C34.6554 50.4702 34.6497 50.5793 34.6414 50.6876H33.303C32.9146 50.6876 32.5999 51.0023 32.5999 51.3907C32.5999 51.7791 32.9146 52.0938 33.303 52.0938H34.2803C33.6127 53.5659 32.1238 54.5937 30.397 54.5937C28.846 54.5937 27.4402 53.7569 26.694 52.4493C27.5433 52.1719 28.3249 51.7056 28.9834 51.0704C29.2629 50.8007 29.2709 50.3556 29.0012 50.0762C28.7316 49.7966 28.2865 49.7887 28.0071 50.0583C27.3357 50.7061 26.4963 51.1244 25.59 51.2755C25.3344 51.3182 25.0778 51.34 24.8272 51.34C22.309 51.34 20.2603 49.3029 20.2603 46.7989C20.2603 46.7349 20.2641 46.6684 20.2672 46.6026C20.8348 46.3716 21.3679 46.0555 21.8434 45.6586C22.1416 45.4097 22.1814 44.9663 21.9325 44.6682C21.6836 44.3701 21.2475 44.3392 20.9421 44.5791C19.5312 45.6874 18.1666 45.6702 17.6207 45.6249C17.2325 45.592 16.8939 45.8805 16.8617 46.2674C16.8295 46.6544 17.1172 46.9941 17.5042 47.0264C17.9537 47.0635 18.4117 47.0505 18.857 46.987C18.957 50.1797 21.5968 52.7462 24.8273 52.7462C24.9696 52.7462 25.1131 52.7409 25.2571 52.7304C26.1761 54.7072 28.1751 55.9999 30.397 55.9999C33.5204 55.9999 36.0616 53.4698 36.0616 50.3597V48.8059H39.7889C39.8652 48.8072 40.0394 48.8791 40.0943 48.9318L41.7706 50.5999C41.5438 50.9647 41.4125 51.3944 41.4125 51.8541C41.4125 53.1712 42.4877 54.2427 43.8093 54.2427C45.131 54.2427 46.2061 53.1712 46.2061 51.8541C46.2061 50.537 45.1309 49.4655 43.8093 49.4655C43.4618 49.4655 43.1317 49.5403 42.8332 49.6734L41.0861 47.935C40.7694 47.6198 40.2361 47.3997 39.7892 47.3997H36.0616V43.6411H42.1741C42.4761 44.616 43.3886 45.3265 44.4649 45.3265C45.7866 45.3265 46.8617 44.255 46.8617 42.9379C46.8617 41.6208 45.7865 40.5494 44.4649 40.5494C43.3887 40.5494 42.4761 41.2598 42.1741 42.2348H36.0616V37.5248H43.3762C43.6781 38.4997 44.5907 39.2103 45.6669 39.2103C46.9886 39.2103 48.0638 38.1388 48.0638 36.8217C48.0638 35.5046 46.9885 34.4331 45.6669 34.4331C44.5907 34.4331 43.6781 35.1436 43.3762 36.1186H36.0616V31.0009H37.8033C38.1054 31.9757 39.0179 32.6862 40.0941 32.6862C41.4158 32.6862 42.4909 31.6147 42.4909 30.2977C42.4909 28.9806 41.4157 27.9092 40.0941 27.9092C39.0179 27.9092 38.1053 28.6196 37.8033 29.5946H36.0616V25.537H43.7227C43.7989 25.5384 43.9732 25.6102 44.028 25.6629L45.4723 27.1003C45.6095 27.2368 45.7888 27.3051 45.9683 27.3051C46.1487 27.3051 46.3293 27.236 46.4666 27.0979C46.7406 26.8226 46.7394 26.3774 46.4642 26.1035L45.0199 24.6661C44.7031 24.3509 44.1699 24.1308 43.7229 24.1308H36.0616V21.2136H41.8653ZM46.7595 14.7724C47.3057 14.7724 47.7501 15.213 47.7501 15.7545C47.7501 16.2961 47.3057 16.7368 46.7595 16.7368C46.2133 16.7368 45.769 16.2962 45.769 15.7545C45.769 15.213 46.2133 14.7724 46.7595 14.7724ZM39.9848 13.4676C40.531 13.4676 40.9753 13.9082 40.9753 14.4498C40.9753 14.9914 40.531 15.4321 39.9848 15.4321C39.4386 15.4321 38.9943 14.9915 38.9943 14.4498C38.9942 13.9082 39.4386 13.4676 39.9848 13.4676ZM43.8093 50.8717C44.3555 50.8717 44.7999 51.3124 44.7999 51.854C44.7999 52.3956 44.3555 52.8363 43.8093 52.8363C43.2631 52.8363 42.8187 52.3957 42.8187 51.854C42.8187 51.3124 43.2631 50.8717 43.8093 50.8717ZM44.4649 41.9556C45.0111 41.9556 45.4554 42.3962 45.4554 42.9379C45.4554 43.4795 45.0111 43.9202 44.4649 43.9202C43.9187 43.9202 43.4743 43.4796 43.4743 42.9379C43.4743 42.3963 43.9187 41.9556 44.4649 41.9556ZM45.6669 35.8394C46.213 35.8394 46.6574 36.28 46.6574 36.8217C46.6574 37.3633 46.213 37.804 45.6669 37.804C45.1207 37.804 44.6763 37.3634 44.6763 36.8217C44.6763 36.28 45.1207 35.8394 45.6669 35.8394ZM40.0941 29.3154C40.6403 29.3154 41.0846 29.7561 41.0846 30.2977C41.0846 30.8392 40.6403 31.28 40.0941 31.28C39.5479 31.28 39.1035 30.8393 39.1035 30.2977C39.1035 29.7561 39.5479 29.3154 40.0941 29.3154Z" stroke="#176FC0" stroke-width="0.75"/>
</svg>
