<svg width="64" height="64" viewBox="0 0 64 64" fill="none" xmlns="http://www.w3.org/2000/svg">
<path d="M0 8C0 3.58172 3.58172 0 8 0H56C60.4183 0 64 3.58172 64 8V56C64 60.4183 60.4183 64 56 64H8C3.58172 64 0 60.4183 0 56V8Z" fill="white"/>
<path d="M22.9266 8.93752H11.6927C10.5136 8.93752 9.54688 9.90483 9.54688 11.0847V27.7708C9.54688 28.9506 10.5136 29.9179 11.6927 29.9179H29.1624L33.4912 35.4508L34.8802 29.9179H37.8785C39.0577 29.9179 40.0243 28.9532 40.0243 27.7708V11.0847C40.0243 9.90483 39.0577 8.93752 37.8785 8.93752H31.3401M27.6744 29.9179C27.0795 31.2228 26.6785 32.6339 26.5059 34.114C26.4289 34.7784 26.5165 34.797 26.2164 35.4002L23.2579 41.3449C22.8621 42.1395 22.8304 42.538 23.7917 42.538H25.4303C26.4076 42.538 26.4103 42.4425 26.4103 43.0456C26.4103 45.1264 26.7688 46.7607 27.0902 48.8522C27.2335 49.7769 27.8577 50.5556 28.7925 50.5556H34.2209C35.0867 50.5556 34.8715 50.9408 35.0761 51.5999L36.0003 54.6135C36.072 54.8499 36.202 55.0625 36.4464 55.0625H47.1093C47.3562 55.0625 47.5581 54.8606 47.5581 54.6135V47.8317C51.6851 45.3895 54.4524 40.8904 54.4524 35.7456C54.4524 27.9966 48.1769 21.7171 40.4327 21.7171C40.2946 21.7171 40.1591 21.7198 40.0237 21.7224M18.0687 19.429H14.7384M34.8319 19.429H22.7535M22.5411 24.2576H14.7384M34.8319 24.2576H27.2257M27.3427 14.5979H14.7384M34.8319 14.5979H32.0274M14.9828 53.5797C11.4187 50.0108 11.4187 44.2282 14.9828 40.6593M18.9164 51.0126C16.7679 48.8627 16.7679 45.3761 18.9164 43.2263M27.1304 8.9375H27.133" stroke="#176FC0" stroke-width="2" stroke-miterlimit="10" stroke-linecap="round" stroke-linejoin="round"/>
</svg>
