<svg width="64" height="64" viewBox="0 0 64 64" fill="none" xmlns="http://www.w3.org/2000/svg">
<path d="M0 8C0 3.58172 3.58172 0 8 0H56C60.4183 0 64 3.58172 64 8V56C64 60.4183 60.4183 64 56 64H8C3.58172 64 0 60.4183 0 56V8Z" fill="white"/>
<path d="M55.999 51.0031C55.999 50.6147 55.6843 50.3 55.2959 50.3H54.7377L53.9753 44.4543L54.2916 44.2955C54.5318 44.175 54.6823 43.9281 54.6794 43.6595C54.6764 43.3908 54.5206 43.1472 54.2779 43.032L53.7576 42.785L53.1003 37.7444L53.6471 37.4848C53.8864 37.3712 54.0415 37.1328 54.0484 36.8679C54.0553 36.6032 53.9129 36.357 53.6797 36.231L52.844 35.7793L52.2008 30.848L53.0442 30.3922C53.265 30.2729 53.4055 30.045 53.4128 29.7941C53.4201 29.5431 53.2932 29.3075 53.0796 29.1754L51.8866 28.438L51.2796 23.7831L52.0681 23.2957C52.2589 23.1778 52.382 22.976 52.3994 22.7523C52.4168 22.5287 52.3266 22.3101 52.1563 22.1641L50.9312 21.1126L50.3068 16.325H52.3801V17.825H52.1915C51.8031 17.825 51.4883 18.1398 51.4883 18.5282C51.4883 18.9166 51.8031 19.2313 52.1915 19.2313H53.975C54.3634 19.2313 54.6781 18.9166 54.6781 18.5282C54.6781 18.1398 54.3634 17.825 53.975 17.825H53.7862V15.6218C53.7862 15.2334 53.4715 14.9187 53.0831 14.9187H50.1233L49.8608 12.9059C49.8152 12.5557 49.5168 12.2937 49.1635 12.2937H43.7971C43.4438 12.2937 43.1455 12.5557 43.0998 12.9059L42.8373 14.9187H39.8778C39.4894 14.9187 39.1746 15.2334 39.1746 15.6218V17.825H38.986C38.5976 17.825 38.2829 18.1397 38.2829 18.5281C38.2829 18.9165 38.5976 19.2312 38.986 19.2312H40.7694C41.1578 19.2312 41.4726 18.9165 41.4726 18.5281C41.4726 18.1397 41.1578 17.825 40.7694 17.825H40.5808V16.325H42.6541L42.0297 21.1125L40.8046 22.164C40.6344 22.3101 40.5441 22.5287 40.5615 22.7522C40.579 22.9759 40.702 23.1777 40.8928 23.2956L41.6813 23.783L41.5292 24.9499H37.8307C35.1191 24.9499 32.9132 27.1559 32.9132 29.8674V34.3249H32.1413V30.2468C32.1413 29.8584 31.8266 29.5437 31.4382 29.5437H27.7145V26.0124H27.8387C28.227 26.0124 28.5418 25.6977 28.5418 25.3093C28.5418 24.9209 28.227 24.6062 27.8387 24.6062H27.7145V22.0437H27.8387C28.227 22.0437 28.5418 21.729 28.5418 21.3406C28.5418 20.9522 28.227 20.6375 27.8387 20.6375H27.7145V18.075H27.8387C28.227 18.075 28.5418 17.7603 28.5418 17.3719C28.5418 16.9835 28.227 16.6687 27.8387 16.6687H27.7145V13.7H27.8387C28.227 13.7 28.5418 13.3852 28.5418 12.9968C28.5418 12.6084 28.227 12.2937 27.8387 12.2937H21.7941C21.4057 12.2937 21.0909 12.6084 21.0909 12.9968C21.0909 13.3852 21.4057 13.7 21.7941 13.7H21.9183V16.6687H21.7941C21.4057 16.6687 21.0909 16.9835 21.0909 17.3719C21.0909 17.7603 21.4057 18.075 21.7941 18.075H21.9183V20.6375H21.7941C21.4057 20.6375 21.0909 20.9522 21.0909 21.3406C21.0909 21.729 21.4057 22.0437 21.7941 22.0437H21.9183V24.6062H21.7941C21.4057 24.6062 21.0909 24.9209 21.0909 25.3093C21.0909 25.6977 21.4057 26.0124 21.7941 26.0124H21.9183V29.5437H19.4794C19.0911 29.5437 18.7762 29.8584 18.7762 30.2468C18.7762 30.6352 19.0911 30.95 19.4794 30.95H30.735V50.3H27.5887V46.2734C27.5887 44.9578 26.5184 43.8875 25.2028 43.8875H20.6934C19.3778 43.8875 18.3075 44.9578 18.3075 46.2734V50.3H15.1612V30.95H16.6669C17.0552 30.95 17.37 30.6352 17.37 30.2468C17.37 29.8584 17.0552 29.5437 16.6669 29.5437H14.4581C14.0698 29.5437 13.755 29.8584 13.755 30.2468V40.0437H9.87777C9.48946 40.0437 9.17465 40.3584 9.17465 40.7468V46.3906C9.17465 46.779 9.48946 47.0937 9.87777 47.0937C10.2661 47.0937 10.5809 46.779 10.5809 46.3906V41.45H13.7553V50.3H10.5809V49.2031C10.5809 48.8147 10.2661 48.5 9.87777 48.5C9.48946 48.5 9.17465 48.8147 9.17465 49.2031V50.3H8.70215C8.31384 50.3 7.99902 50.6147 7.99902 51.0031C7.99902 51.3915 8.31384 51.7062 8.70215 51.7062H55.2959C55.6842 51.7062 55.999 51.3915 55.999 51.0031ZM23.3247 13.7H26.3083V16.6687H23.3247V13.7ZM23.3247 18.075H26.3083V20.6375H23.3247V18.075ZM23.3247 22.0437H26.3083V24.6062H23.3247V22.0437ZM23.3247 29.5437V26.0124H26.3083V29.5437H23.3247ZM50.6813 30.0706L46.4805 32.3405L42.2796 30.0706L42.3824 29.2828L46.4805 26.7496L50.5786 29.2828L50.6813 30.0706ZM45.0015 33.1398L41.6427 34.9548L42.0849 31.5637L45.0015 33.1398ZM51.5736 36.9124L46.4805 39.3302L41.3874 36.9124L41.4185 36.6744L46.4805 33.939L51.5425 36.6744L51.5736 36.9124ZM44.841 40.1086L40.7151 42.0673L41.1963 38.3783L44.841 40.1086ZM46.4805 40.8869L52.3737 43.6847L46.4805 46.6425L40.5873 43.6847L46.4805 40.8869ZM44.9131 47.4291L39.6729 50.0592L40.3168 45.1222L44.9131 47.4291ZM46.4805 48.2159L50.6328 50.3H42.3281L46.4805 48.2159ZM53.2882 50.0592L48.048 47.4291L52.6443 45.1222L53.2882 50.0592ZM52.2458 42.0672L48.12 40.1085L51.7647 38.3782L52.2458 42.0672ZM51.3183 34.9548L47.9595 33.1398L50.8761 31.5637L51.3183 34.9548ZM50.3441 27.4845L47.8178 25.9229L49.9671 24.5943L50.3441 27.4845ZM43.3546 21.8285L46.4806 19.1454L49.6066 21.8285L49.7677 23.0644L46.4806 25.0963L43.1934 23.0644L43.3546 21.8285ZM47.5601 18.2188L48.9771 17.0025L49.3343 19.7417L47.5601 18.2188ZM46.4805 17.2922L45.3536 16.325H47.6074L46.4805 17.2922ZM44.4146 13.7H48.5464L48.7053 14.9187H44.2556L44.4146 13.7ZM43.9839 17.0025L45.401 18.2188L43.6267 19.7417L43.9839 17.0025ZM45.1432 25.9229L42.617 27.4845L42.9938 24.5943L45.1432 25.9229ZM19.7139 50.3V46.2734C19.7139 45.7331 20.1534 45.2937 20.6936 45.2937H25.203C25.7432 45.2937 26.1827 45.7332 26.1827 46.2734V50.3H19.7139ZM32.1415 50.3V35.7312H35.5327V38.5156C35.5327 38.904 35.8475 39.2187 36.2359 39.2187C36.6243 39.2187 36.939 38.904 36.939 38.5156V35.0281C36.939 34.6397 36.6243 34.3249 36.2359 34.3249H34.3196V29.8675C34.3196 27.9314 35.8948 26.3562 37.8308 26.3562H41.3459L41.0744 28.438L39.8813 29.1754C39.6679 29.3074 39.5408 29.5431 39.5481 29.7941C39.5555 30.045 39.6959 30.2728 39.9168 30.3922L40.7601 30.848L40.117 35.7793L39.2812 36.231C39.0482 36.357 38.9057 36.6032 38.9126 36.8679C38.9195 37.1328 39.0747 37.3712 39.3139 37.4848L39.8607 37.7444L39.2033 42.785L38.6831 43.032C38.4404 43.1472 38.2846 43.3908 38.2816 43.6595C38.2787 43.9281 38.4291 44.175 38.6693 44.2955L38.9856 44.4543L38.2233 50.3H36.9389V41.3281C36.9389 40.9397 36.6242 40.625 36.2358 40.625C35.8474 40.625 35.5326 40.9397 35.5326 41.3281V50.3H32.1415Z" fill="#176FC0"/>
<path d="M21.5018 38.1139C21.7984 38.3658 22.2419 38.3286 22.4929 38.0334L24.4757 35.6995C24.6532 35.4905 24.693 35.1977 24.578 34.949C24.4629 34.7003 24.2139 34.541 23.9398 34.541H23.5239L24.4756 33.4208C24.7271 33.1248 24.691 32.681 24.395 32.4297C24.0991 32.1783 23.6553 32.2144 23.4039 32.5102L21.4679 34.7889C21.2905 34.9979 21.2506 35.2908 21.3657 35.5394C21.4808 35.7881 21.7298 35.9474 22.0038 35.9474H22.4198L21.4211 37.1228C21.1697 37.4188 21.2058 37.8625 21.5018 38.1139Z" fill="#176FC0"/>
<path d="M55.999 51.0031C55.999 50.6147 55.6843 50.3 55.2959 50.3H54.7377L53.9753 44.4543L54.2916 44.2955C54.5318 44.175 54.6823 43.9281 54.6794 43.6595C54.6764 43.3908 54.5206 43.1472 54.2779 43.032L53.7576 42.785L53.1003 37.7444L53.6471 37.4848C53.8864 37.3712 54.0415 37.1328 54.0484 36.8679C54.0553 36.6032 53.9129 36.357 53.6797 36.231L52.844 35.7793L52.2008 30.848L53.0442 30.3922C53.265 30.2729 53.4055 30.045 53.4128 29.7941C53.4201 29.5431 53.2932 29.3075 53.0796 29.1754L51.8866 28.438L51.2796 23.7831L52.0681 23.2957C52.2589 23.1778 52.382 22.976 52.3994 22.7523C52.4168 22.5287 52.3266 22.3101 52.1563 22.1641L50.9312 21.1126L50.3068 16.325H52.3801V17.825H52.1915C51.8031 17.825 51.4883 18.1398 51.4883 18.5282C51.4883 18.9166 51.8031 19.2313 52.1915 19.2313H53.975C54.3634 19.2313 54.6781 18.9166 54.6781 18.5282C54.6781 18.1398 54.3634 17.825 53.975 17.825H53.7862V15.6218C53.7862 15.2334 53.4715 14.9187 53.0831 14.9187H50.1233L49.8608 12.9059C49.8152 12.5557 49.5168 12.2937 49.1635 12.2937H43.7971C43.4438 12.2937 43.1455 12.5557 43.0998 12.9059L42.8373 14.9187H39.8778C39.4894 14.9187 39.1746 15.2334 39.1746 15.6218V17.825H38.986C38.5976 17.825 38.2829 18.1397 38.2829 18.5281C38.2829 18.9165 38.5976 19.2312 38.986 19.2312H40.7694C41.1578 19.2312 41.4726 18.9165 41.4726 18.5281C41.4726 18.1397 41.1578 17.825 40.7694 17.825H40.5808V16.325H42.6541L42.0297 21.1125L40.8046 22.164C40.6344 22.3101 40.5441 22.5287 40.5615 22.7522C40.579 22.9759 40.702 23.1777 40.8928 23.2956L41.6813 23.783L41.5292 24.9499H37.8307C35.1191 24.9499 32.9132 27.1559 32.9132 29.8674V34.3249H32.1413V30.2468C32.1413 29.8584 31.8266 29.5437 31.4382 29.5437H27.7145V26.0124H27.8387C28.227 26.0124 28.5418 25.6977 28.5418 25.3093C28.5418 24.9209 28.227 24.6062 27.8387 24.6062H27.7145V22.0437H27.8387C28.227 22.0437 28.5418 21.729 28.5418 21.3406C28.5418 20.9522 28.227 20.6375 27.8387 20.6375H27.7145V18.075H27.8387C28.227 18.075 28.5418 17.7603 28.5418 17.3719C28.5418 16.9835 28.227 16.6687 27.8387 16.6687H27.7145V13.7H27.8387C28.227 13.7 28.5418 13.3852 28.5418 12.9968C28.5418 12.6084 28.227 12.2937 27.8387 12.2937H21.7941C21.4057 12.2937 21.0909 12.6084 21.0909 12.9968C21.0909 13.3852 21.4057 13.7 21.7941 13.7H21.9183V16.6687H21.7941C21.4057 16.6687 21.0909 16.9835 21.0909 17.3719C21.0909 17.7603 21.4057 18.075 21.7941 18.075H21.9183V20.6375H21.7941C21.4057 20.6375 21.0909 20.9522 21.0909 21.3406C21.0909 21.729 21.4057 22.0437 21.7941 22.0437H21.9183V24.6062H21.7941C21.4057 24.6062 21.0909 24.9209 21.0909 25.3093C21.0909 25.6977 21.4057 26.0124 21.7941 26.0124H21.9183V29.5437H19.4794C19.0911 29.5437 18.7762 29.8584 18.7762 30.2468C18.7762 30.6352 19.0911 30.95 19.4794 30.95H30.735V50.3H27.5887V46.2734C27.5887 44.9578 26.5184 43.8875 25.2028 43.8875H20.6934C19.3778 43.8875 18.3075 44.9578 18.3075 46.2734V50.3H15.1612V30.95H16.6669C17.0552 30.95 17.37 30.6352 17.37 30.2468C17.37 29.8584 17.0552 29.5437 16.6669 29.5437H14.4581C14.0698 29.5437 13.755 29.8584 13.755 30.2468V40.0437H9.87777C9.48946 40.0437 9.17465 40.3584 9.17465 40.7468V46.3906C9.17465 46.779 9.48946 47.0937 9.87777 47.0937C10.2661 47.0937 10.5809 46.779 10.5809 46.3906V41.45H13.7553V50.3H10.5809V49.2031C10.5809 48.8147 10.2661 48.5 9.87777 48.5C9.48946 48.5 9.17465 48.8147 9.17465 49.2031V50.3H8.70215C8.31384 50.3 7.99902 50.6147 7.99902 51.0031C7.99902 51.3915 8.31384 51.7062 8.70215 51.7062H55.2959C55.6842 51.7062 55.999 51.3915 55.999 51.0031ZM23.3247 13.7H26.3083V16.6687H23.3247V13.7ZM23.3247 18.075H26.3083V20.6375H23.3247V18.075ZM23.3247 22.0437H26.3083V24.6062H23.3247V22.0437ZM23.3247 29.5437V26.0124H26.3083V29.5437H23.3247ZM50.6813 30.0706L46.4805 32.3405L42.2796 30.0706L42.3824 29.2828L46.4805 26.7496L50.5786 29.2828L50.6813 30.0706ZM45.0015 33.1398L41.6427 34.9548L42.0849 31.5637L45.0015 33.1398ZM51.5736 36.9124L46.4805 39.3302L41.3874 36.9124L41.4185 36.6744L46.4805 33.939L51.5425 36.6744L51.5736 36.9124ZM44.841 40.1086L40.7151 42.0673L41.1963 38.3783L44.841 40.1086ZM46.4805 40.8869L52.3737 43.6847L46.4805 46.6425L40.5873 43.6847L46.4805 40.8869ZM44.9131 47.4291L39.6729 50.0592L40.3168 45.1222L44.9131 47.4291ZM46.4805 48.2159L50.6328 50.3H42.3281L46.4805 48.2159ZM53.2882 50.0592L48.048 47.4291L52.6443 45.1222L53.2882 50.0592ZM52.2458 42.0672L48.12 40.1085L51.7647 38.3782L52.2458 42.0672ZM51.3183 34.9548L47.9595 33.1398L50.8761 31.5637L51.3183 34.9548ZM50.3441 27.4845L47.8178 25.9229L49.9671 24.5943L50.3441 27.4845ZM43.3546 21.8285L46.4806 19.1454L49.6066 21.8285L49.7677 23.0644L46.4806 25.0963L43.1934 23.0644L43.3546 21.8285ZM47.5601 18.2188L48.9771 17.0025L49.3343 19.7417L47.5601 18.2188ZM46.4805 17.2922L45.3536 16.325H47.6074L46.4805 17.2922ZM44.4146 13.7H48.5464L48.7053 14.9187H44.2556L44.4146 13.7ZM43.9839 17.0025L45.401 18.2188L43.6267 19.7417L43.9839 17.0025ZM45.1432 25.9229L42.617 27.4845L42.9938 24.5943L45.1432 25.9229ZM19.7139 50.3V46.2734C19.7139 45.7331 20.1534 45.2937 20.6936 45.2937H25.203C25.7432 45.2937 26.1827 45.7332 26.1827 46.2734V50.3H19.7139ZM32.1415 50.3V35.7312H35.5327V38.5156C35.5327 38.904 35.8475 39.2187 36.2359 39.2187C36.6243 39.2187 36.939 38.904 36.939 38.5156V35.0281C36.939 34.6397 36.6243 34.3249 36.2359 34.3249H34.3196V29.8675C34.3196 27.9314 35.8948 26.3562 37.8308 26.3562H41.3459L41.0744 28.438L39.8813 29.1754C39.6679 29.3074 39.5408 29.5431 39.5481 29.7941C39.5555 30.045 39.6959 30.2728 39.9168 30.3922L40.7601 30.848L40.117 35.7793L39.2812 36.231C39.0482 36.357 38.9057 36.6032 38.9126 36.8679C38.9195 37.1328 39.0747 37.3712 39.3139 37.4848L39.8607 37.7444L39.2033 42.785L38.6831 43.032C38.4404 43.1472 38.2846 43.3908 38.2816 43.6595C38.2787 43.9281 38.4291 44.175 38.6693 44.2955L38.9856 44.4543L38.2233 50.3H36.9389V41.3281C36.9389 40.9397 36.6242 40.625 36.2358 40.625C35.8474 40.625 35.5326 40.9397 35.5326 41.3281V50.3H32.1415Z" stroke="#176FC0" stroke-width="0.5"/>
<path d="M21.5018 38.1139C21.7984 38.3658 22.2419 38.3286 22.4929 38.0334L24.4757 35.6995C24.6532 35.4905 24.693 35.1977 24.578 34.949C24.4629 34.7003 24.2139 34.541 23.9398 34.541H23.5239L24.4756 33.4208C24.7271 33.1248 24.691 32.681 24.395 32.4297C24.0991 32.1783 23.6553 32.2144 23.4039 32.5102L21.4679 34.7889C21.2905 34.9979 21.2506 35.2908 21.3657 35.5394C21.4808 35.7881 21.7298 35.9474 22.0038 35.9474H22.4198L21.4211 37.1228C21.1697 37.4188 21.2058 37.8625 21.5018 38.1139Z" stroke="#176FC0" stroke-width="0.5"/>
</svg>
