<svg width="64" height="64" viewBox="0 0 64 64" fill="none" xmlns="http://www.w3.org/2000/svg">
<path d="M0 8C0 3.58172 3.58172 0 8 0H56C60.4183 0 64 3.58172 64 8V56C64 60.4183 60.4183 64 56 64H8C3.58172 64 0 60.4183 0 56V8Z" fill="white"/>
<path d="M40.058 38.7835C38.9207 38.7835 37.9955 37.9827 37.9955 36.9984C37.9955 36.014 38.9207 35.2132 40.058 35.2132C41.1953 35.2132 42.1205 36.014 42.1205 36.9984C42.1205 37.5161 42.5403 37.9359 43.058 37.9359C43.5757 37.9359 43.9955 37.5161 43.9955 36.9984C43.9955 35.2804 42.7154 33.8359 40.9955 33.4439V32.9563C40.9955 32.4386 40.5757 32.0188 40.058 32.0188C39.5403 32.0188 39.1205 32.4386 39.1205 32.9563V33.4439C37.4005 33.8359 36.1205 35.2804 36.1205 36.9984C36.1205 39.0166 37.8868 40.6585 40.058 40.6585C41.1953 40.6585 42.1205 41.4593 42.1205 42.4437C42.1205 43.4281 41.1953 44.2289 40.058 44.2289C38.9207 44.2289 37.9955 43.4281 37.9955 42.4437C37.9955 41.926 37.5757 41.5062 37.058 41.5062C36.5403 41.5062 36.1205 41.926 36.1205 42.4437C36.1205 44.1616 37.4005 45.6061 39.1205 45.9982V46.4032C39.1205 46.9209 39.5403 47.3407 40.058 47.3407C40.5757 47.3407 40.9955 46.9209 40.9955 46.4032V45.9982C42.7154 45.6061 43.9955 44.1616 43.9955 42.4437C43.9955 40.4254 42.2291 38.7835 40.058 38.7835Z" fill="#176FC0"/>
<path d="M50.3254 33.2071C49.1007 31.2989 47.3754 29.7719 45.3358 28.7914C44.869 28.567 44.3089 28.7635 44.0846 29.2302C43.8603 29.6969 44.0567 30.2569 44.5234 30.4813C48.0775 32.1898 50.3739 35.8403 50.3739 39.7813C50.3739 41.4677 49.9582 43.1401 49.172 44.618C48.9288 45.075 49.1021 45.6428 49.5592 45.886C49.6995 45.9606 49.8502 45.996 49.9987 45.996C50.3342 45.996 50.6587 45.8155 50.8272 45.4987C51.7573 43.7508 52.2489 41.7737 52.2489 39.7813C52.2489 37.4413 51.5838 35.168 50.3254 33.2071Z" fill="#176FC0"/>
<path d="M41.5318 27.5939L41.4687 27.5938C40.951 27.5938 40.5312 28.0135 40.5312 28.5313C40.5312 29.0491 40.951 29.4688 41.4687 29.4688L41.523 29.4689H41.5275C42.0432 29.4689 42.4624 29.0521 42.4649 28.5358C42.4672 28.018 42.0495 27.5963 41.5318 27.5939Z" fill="#176FC0"/>
<path d="M35.6006 49.0814C32.0465 47.3728 29.7501 43.7222 29.7501 39.7813C29.7501 38.0949 30.1658 36.4225 30.9521 34.9446C31.1953 34.4876 31.022 33.9199 30.5648 33.6767C30.1079 33.4335 29.54 33.6068 29.2969 34.064C28.3668 35.8119 27.8752 37.7889 27.8752 39.7813C27.8752 42.1213 28.5403 44.3945 29.7987 46.3555C31.0234 48.2638 32.7487 49.7908 34.7883 50.7713C34.9192 50.8343 35.0576 50.864 35.1938 50.864C35.5429 50.864 35.878 50.6682 36.0394 50.3325C36.2636 49.8659 36.0673 49.3057 35.6006 49.0814Z" fill="#176FC0"/>
<path d="M38.6564 50.0938L38.6021 50.0936C38.082 50.0926 37.6627 50.5088 37.6604 51.0267C37.6579 51.5444 38.0759 51.9661 38.5936 51.9686L38.6564 51.9688C39.1741 51.9688 39.5939 51.5489 39.5939 51.0313C39.5939 50.5136 39.1741 50.0938 38.6564 50.0938Z" fill="#176FC0"/>
<path d="M44.3195 24.422C44.2054 24.1501 44.0657 23.8939 43.903 23.6562H46.3437C48.7215 23.6562 50.6562 21.7216 50.6562 19.3437C50.6562 16.9659 48.7215 15.0312 46.3437 15.0312H38.8362C39.3135 14.3373 39.5937 13.4978 39.5937 12.5937C39.5937 10.2159 37.6591 8.28125 35.2812 8.28125H12.3125C9.93462 8.28125 8 10.2159 8 12.5937C8 14.9716 9.93462 16.9062 12.3125 16.9062H19.82C19.3427 17.6002 19.0625 18.4397 19.0625 19.3437C19.0625 20.2478 19.3426 21.0873 19.82 21.7812H17.375C14.9971 21.7812 13.0625 23.7158 13.0625 26.0937C13.0625 27.4594 13.7013 28.678 14.6951 29.4687C13.7013 30.2594 13.0625 31.478 13.0625 32.8437C13.0625 34.2094 13.7013 35.428 14.6951 36.2187C13.7013 37.0094 13.0625 38.228 13.0625 39.5937C13.0625 40.9593 13.7013 42.178 14.6951 42.9687C13.7013 43.7594 13.0625 44.978 13.0625 46.3437C13.0625 48.7215 14.9971 50.6562 17.375 50.6562H28.4234C31.334 53.7693 35.4745 55.7188 40.0625 55.7188C48.8505 55.7188 56 48.5692 56 39.7813C56 32.4672 51.0472 26.289 44.3195 24.422ZM46.3437 16.9062C47.6878 16.9062 48.7812 17.9997 48.7812 19.3437C48.7812 20.6877 47.6878 21.7812 46.3437 21.7812H23.375C22.0309 21.7812 20.9375 20.6877 20.9375 19.3437C20.9375 17.9997 22.0309 16.9062 23.375 16.9062H46.3437ZM12.3125 15.0312C10.9684 15.0312 9.875 13.9377 9.875 12.5937C9.875 11.2497 10.9684 10.1562 12.3125 10.1562H35.2812C36.6253 10.1562 37.7187 11.2497 37.7187 12.5937C37.7187 13.9377 36.6253 15.0312 35.2812 15.0312H12.3125ZM17.375 23.6562H40.3437C40.7213 23.6562 41.0829 23.744 41.4073 23.9011C40.9638 23.8639 40.5155 23.8438 40.0625 23.8438C35.6614 23.8438 31.6715 25.6372 28.7845 28.5312H17.375C16.031 28.5312 14.9375 27.4377 14.9375 26.0937C14.9375 24.7497 16.031 23.6562 17.375 23.6562ZM17.375 30.4062H27.1826C26.1184 31.8643 25.2955 33.5089 24.773 35.2812H17.375C16.0309 35.2812 14.9375 34.1878 14.9375 32.8437C14.9375 31.4997 16.0309 30.4062 17.375 30.4062ZM17.375 37.1562H24.3425C24.2003 38.0105 24.1251 38.8872 24.1251 39.7813C24.1251 40.545 24.1803 41.2959 24.2846 42.0312H17.375C16.0309 42.0312 14.9375 40.9378 14.9375 39.5937C14.9375 38.2496 16.0309 37.1562 17.375 37.1562ZM17.375 48.7812C16.0309 48.7812 14.9375 47.6878 14.9375 46.3437C14.9375 44.9996 16.0309 43.9062 17.375 43.9062H24.6674C25.1405 45.6699 25.9089 47.3136 26.9167 48.7812H17.375ZM40.0625 53.8438C32.3085 53.8438 26.0001 47.5353 26.0001 39.7813C26.0001 32.0272 32.3085 25.7188 40.0625 25.7188C47.8166 25.7188 54.125 32.0272 54.125 39.7813C54.125 47.5353 47.8166 53.8438 40.0625 53.8438Z" fill="#176FC0"/>
<path d="M40.058 38.7835C38.9207 38.7835 37.9955 37.9827 37.9955 36.9984C37.9955 36.014 38.9207 35.2132 40.058 35.2132C41.1953 35.2132 42.1205 36.014 42.1205 36.9984C42.1205 37.5161 42.5403 37.9359 43.058 37.9359C43.5757 37.9359 43.9955 37.5161 43.9955 36.9984C43.9955 35.2804 42.7154 33.8359 40.9955 33.4439V32.9563C40.9955 32.4386 40.5757 32.0188 40.058 32.0188C39.5403 32.0188 39.1205 32.4386 39.1205 32.9563V33.4439C37.4005 33.8359 36.1205 35.2804 36.1205 36.9984C36.1205 39.0166 37.8868 40.6585 40.058 40.6585C41.1953 40.6585 42.1205 41.4593 42.1205 42.4437C42.1205 43.4281 41.1953 44.2289 40.058 44.2289C38.9207 44.2289 37.9955 43.4281 37.9955 42.4437C37.9955 41.926 37.5757 41.5062 37.058 41.5062C36.5403 41.5062 36.1205 41.926 36.1205 42.4437C36.1205 44.1616 37.4005 45.6061 39.1205 45.9982V46.4032C39.1205 46.9209 39.5403 47.3407 40.058 47.3407C40.5757 47.3407 40.9955 46.9209 40.9955 46.4032V45.9982C42.7154 45.6061 43.9955 44.1616 43.9955 42.4437C43.9955 40.4254 42.2291 38.7835 40.058 38.7835Z" stroke="#176FC0" stroke-width="0.5"/>
<path d="M50.3254 33.2071C49.1007 31.2989 47.3754 29.7719 45.3358 28.7914C44.869 28.567 44.3089 28.7635 44.0846 29.2302C43.8603 29.6969 44.0567 30.2569 44.5234 30.4813C48.0775 32.1898 50.3739 35.8403 50.3739 39.7813C50.3739 41.4677 49.9582 43.1401 49.172 44.618C48.9288 45.075 49.1021 45.6428 49.5592 45.886C49.6995 45.9606 49.8502 45.996 49.9987 45.996C50.3342 45.996 50.6587 45.8155 50.8272 45.4987C51.7573 43.7508 52.2489 41.7737 52.2489 39.7813C52.2489 37.4413 51.5838 35.168 50.3254 33.2071Z" stroke="#176FC0" stroke-width="0.5"/>
<path d="M41.5318 27.5939L41.4687 27.5938C40.951 27.5938 40.5312 28.0135 40.5312 28.5313C40.5312 29.0491 40.951 29.4688 41.4687 29.4688L41.523 29.4689H41.5275C42.0432 29.4689 42.4624 29.0521 42.4649 28.5358C42.4672 28.018 42.0495 27.5963 41.5318 27.5939Z" stroke="#176FC0" stroke-width="0.5"/>
<path d="M35.6006 49.0814C32.0465 47.3728 29.7501 43.7222 29.7501 39.7813C29.7501 38.0949 30.1658 36.4225 30.9521 34.9446C31.1953 34.4876 31.022 33.9199 30.5648 33.6767C30.1079 33.4335 29.54 33.6068 29.2969 34.064C28.3668 35.8119 27.8752 37.7889 27.8752 39.7813C27.8752 42.1213 28.5403 44.3945 29.7987 46.3555C31.0234 48.2638 32.7487 49.7908 34.7883 50.7713C34.9192 50.8343 35.0576 50.864 35.1938 50.864C35.5429 50.864 35.878 50.6682 36.0394 50.3325C36.2636 49.8659 36.0673 49.3057 35.6006 49.0814Z" stroke="#176FC0" stroke-width="0.5"/>
<path d="M38.6564 50.0938L38.6021 50.0936C38.082 50.0926 37.6627 50.5088 37.6604 51.0267C37.6579 51.5444 38.0759 51.9661 38.5936 51.9686L38.6564 51.9688C39.1741 51.9688 39.5939 51.5489 39.5939 51.0313C39.5939 50.5136 39.1741 50.0938 38.6564 50.0938Z" stroke="#176FC0" stroke-width="0.5"/>
<path d="M44.3195 24.422C44.2054 24.1501 44.0657 23.8939 43.903 23.6562H46.3437C48.7215 23.6562 50.6562 21.7216 50.6562 19.3437C50.6562 16.9659 48.7215 15.0312 46.3437 15.0312H38.8362C39.3135 14.3373 39.5937 13.4978 39.5937 12.5937C39.5937 10.2159 37.6591 8.28125 35.2812 8.28125H12.3125C9.93462 8.28125 8 10.2159 8 12.5937C8 14.9716 9.93462 16.9062 12.3125 16.9062H19.82C19.3427 17.6002 19.0625 18.4397 19.0625 19.3437C19.0625 20.2478 19.3426 21.0873 19.82 21.7812H17.375C14.9971 21.7812 13.0625 23.7158 13.0625 26.0937C13.0625 27.4594 13.7013 28.678 14.6951 29.4687C13.7013 30.2594 13.0625 31.478 13.0625 32.8437C13.0625 34.2094 13.7013 35.428 14.6951 36.2187C13.7013 37.0094 13.0625 38.228 13.0625 39.5937C13.0625 40.9593 13.7013 42.178 14.6951 42.9687C13.7013 43.7594 13.0625 44.978 13.0625 46.3437C13.0625 48.7215 14.9971 50.6562 17.375 50.6562H28.4234C31.334 53.7693 35.4745 55.7188 40.0625 55.7188C48.8505 55.7188 56 48.5692 56 39.7813C56 32.4672 51.0472 26.289 44.3195 24.422ZM46.3437 16.9062C47.6878 16.9062 48.7812 17.9997 48.7812 19.3437C48.7812 20.6877 47.6878 21.7812 46.3437 21.7812H23.375C22.0309 21.7812 20.9375 20.6877 20.9375 19.3437C20.9375 17.9997 22.0309 16.9062 23.375 16.9062H46.3437ZM12.3125 15.0312C10.9684 15.0312 9.875 13.9377 9.875 12.5937C9.875 11.2497 10.9684 10.1562 12.3125 10.1562H35.2812C36.6253 10.1562 37.7187 11.2497 37.7187 12.5937C37.7187 13.9377 36.6253 15.0312 35.2812 15.0312H12.3125ZM17.375 23.6562H40.3437C40.7213 23.6562 41.0829 23.744 41.4073 23.9011C40.9638 23.8639 40.5155 23.8438 40.0625 23.8438C35.6614 23.8438 31.6715 25.6372 28.7845 28.5312H17.375C16.031 28.5312 14.9375 27.4377 14.9375 26.0937C14.9375 24.7497 16.031 23.6562 17.375 23.6562ZM17.375 30.4062H27.1826C26.1184 31.8643 25.2955 33.5089 24.773 35.2812H17.375C16.0309 35.2812 14.9375 34.1878 14.9375 32.8437C14.9375 31.4997 16.0309 30.4062 17.375 30.4062ZM17.375 37.1562H24.3425C24.2003 38.0105 24.1251 38.8872 24.1251 39.7813C24.1251 40.545 24.1803 41.2959 24.2846 42.0312H17.375C16.0309 42.0312 14.9375 40.9378 14.9375 39.5937C14.9375 38.2496 16.0309 37.1562 17.375 37.1562ZM17.375 48.7812C16.0309 48.7812 14.9375 47.6878 14.9375 46.3437C14.9375 44.9996 16.0309 43.9062 17.375 43.9062H24.6674C25.1405 45.6699 25.9089 47.3136 26.9167 48.7812H17.375ZM40.0625 53.8438C32.3085 53.8438 26.0001 47.5353 26.0001 39.7813C26.0001 32.0272 32.3085 25.7188 40.0625 25.7188C47.8166 25.7188 54.125 32.0272 54.125 39.7813C54.125 47.5353 47.8166 53.8438 40.0625 53.8438Z" stroke="#176FC0" stroke-width="0.5"/>
</svg>
