<svg width="64" height="64" viewBox="0 0 64 64" fill="none" xmlns="http://www.w3.org/2000/svg">
<path d="M0 8C0 3.58173 3.58172 0 8 0H55.9999C60.4182 0 63.9999 3.58172 63.9999 8V55.9999C63.9999 60.4182 60.4182 63.9999 55.9999 63.9999H8C3.58173 63.9999 0 60.4182 0 55.9999V8Z" fill="white"/>
<path d="M26.3814 32.7456C26.628 32.7456 26.8567 32.6164 26.9838 32.4051L28.2523 30.2981L29.9332 32.9692C30.0647 33.1781 30.2944 33.3022 30.5431 33.2977C30.7899 33.2925 31.016 33.1583 31.1386 32.944L33.8447 28.2156L37.4792 34.839C37.6005 35.0601 37.8309 35.1993 38.0831 35.2038C38.0872 35.2038 38.0914 35.2039 38.0956 35.2039C38.343 35.2039 38.5727 35.0737 38.6996 34.8606L40.9639 31.0594H46.4241C46.8124 31.0594 47.1272 30.7446 47.1272 30.3563C47.1272 29.968 46.8124 29.6532 46.4241 29.6532H40.5644C40.3166 29.6532 40.0871 29.7836 39.9603 29.9965L38.1206 33.0848L34.474 26.4392C34.3516 26.2162 34.1183 26.0767 33.8639 26.0743C33.8617 26.0743 33.8597 26.0743 33.8575 26.0743C33.6055 26.0743 33.3726 26.2093 33.2473 26.4282L30.4997 31.2291L28.8341 28.5824C28.7053 28.3778 28.4806 28.2538 28.239 28.2538C28.2367 28.2538 28.2344 28.2538 28.2321 28.2538C27.9879 28.2562 27.7626 28.3851 27.6367 28.5942L25.984 31.3393H21.9879C21.5996 31.3393 21.2848 31.6542 21.2848 32.0425C21.2848 32.4308 21.5996 32.7456 21.9879 32.7456H26.3814Z" fill="#176FC0"/>
<path d="M47.6651 13.2308C47.2768 13.2308 46.962 13.5456 46.962 13.9339V16.008H44.8881C44.4998 16.008 44.185 16.3229 44.185 16.7112C44.185 17.0995 44.4998 17.4143 44.8881 17.4143H46.962V19.4885C46.962 19.8768 47.2768 20.1916 47.6651 20.1916C48.0535 20.1916 48.3683 19.8768 48.3683 19.4885V17.4143H50.4422C50.8305 17.4143 51.1453 17.0995 51.1453 16.7112C51.1453 16.3229 50.8305 16.008 50.4422 16.008H48.3683V13.9339C48.3683 13.5456 48.0535 13.2308 47.6651 13.2308Z" fill="#176FC0"/>
<path d="M50.1462 37.3212C53.5717 33.6591 54.5534 28.1214 52.6705 23.3739C54.6911 21.851 55.9999 19.4312 55.9999 16.7112C55.9999 12.1151 52.261 8.37598 47.6652 8.37598C45.7773 8.37598 43.9287 9.02388 42.4596 10.2003C42.1565 10.4431 42.1076 10.8856 42.3503 11.1887C42.593 11.4917 43.0355 11.5407 43.3386 11.298C44.5769 10.3063 46.0729 9.78222 47.6651 9.78222C51.4854 9.78222 54.5936 12.8906 54.5936 16.7112C54.5936 20.5334 51.4855 23.6429 47.6651 23.6429C44.1079 23.6429 41.1695 20.9487 40.7793 17.4939C40.7786 17.4859 40.7773 17.4779 40.7763 17.4698C40.749 17.2205 40.7339 16.9676 40.7339 16.7112C40.7339 15.6259 40.9777 14.5881 41.4585 13.6264C41.6321 13.2791 41.4913 12.8567 41.144 12.683C40.7964 12.5095 40.3743 12.6502 40.2006 12.9975C39.6213 14.1561 39.3276 15.4056 39.3276 16.7111C39.3276 16.8292 39.3307 16.9466 39.3356 17.0636C37.5602 17.6982 35.9029 18.7419 34.5141 20.1077L33.737 20.8718C33.7332 20.868 33.7304 20.8652 33.7266 20.8615L32.9626 20.1087C30.4904 17.6712 27.2542 16.309 24.0826 16.3746C21.4435 16.429 19.1082 17.4631 17.3298 19.3643C17.0645 19.6484 17.0795 20.0937 17.3635 20.359C17.6476 20.6234 18.092 20.6093 18.3573 20.3252C19.8704 18.7071 21.8598 17.8268 24.1117 17.7809C26.9054 17.7237 29.7713 18.9377 31.9754 21.1099L32.7404 21.8637C33.1098 22.2274 33.4248 22.4084 33.7388 22.4084C34.0501 22.4084 34.3604 22.2302 34.7232 21.874L35.5004 21.1099C36.6682 19.962 38.0457 19.0682 39.5204 18.495C40.3395 22.2382 43.6799 25.049 47.665 25.049C49.0293 25.049 50.3181 24.7194 51.4559 24.1355C53.014 28.3262 52.1194 33.1473 49.1241 36.3545L39.0303 46.6868L38.1949 46.85C37.9924 46.8893 37.8134 46.925 37.6503 46.9578C36.5909 47.1725 36.3378 47.2231 35.0974 47.0318L29.0834 45.9322C28.264 45.649 28.3465 44.9965 28.3925 44.8006C28.4646 44.4959 28.7478 44.0037 29.3562 44.0956C29.3618 44.0965 29.3675 44.0975 29.3731 44.0984C29.644 44.1331 29.9346 44.1706 30.2384 44.209C31.3775 44.3562 32.6675 44.5222 33.8131 44.6393C36.1568 44.8765 37.4824 43.6465 37.7581 42.3209C38.0384 40.97 37.2687 39.1737 34.9156 38.4228C34.8875 38.4144 34.8584 38.4069 34.8284 38.4012L30.9556 37.6906C28.8537 37.3053 27.2187 37.6025 24.7437 38.0525C24.0893 38.1715 23.3468 38.3056 22.52 38.4415L20.6844 38.7434L18.3519 36.3556C15.049 32.8147 14.3169 27.2684 16.5744 22.865C16.7515 22.52 16.6147 22.0963 16.2697 21.9191C15.9237 21.7419 15.5 21.8778 15.3228 22.2238C12.7991 27.1475 13.6241 33.3556 17.33 37.3212C17.3337 37.325 17.3375 37.3287 17.3403 37.3325L18.9903 39.0219L15.9174 39.527V39.4467C15.9174 38.9038 15.4384 38.4622 14.8496 38.4622H9.065C8.47775 38.4622 8 38.9038 8 39.4467V51.8184C8 52.3613 8.47775 52.803 9.065 52.803H14.8497C15.4385 52.803 15.9175 52.3613 15.9175 51.8184V51.7332L28.0775 55.04C29.4096 55.4534 30.4831 55.624 31.4628 55.624C33.0134 55.624 34.3306 55.1984 36.0706 54.6359C36.2253 54.5862 36.3837 54.5346 36.5468 54.4821L48.049 50.794C49.3821 50.3665 50.3309 49.4065 50.5859 48.2262C50.7837 47.3112 50.508 46.4075 49.848 45.8084C49.3137 45.3237 48.0574 44.6281 45.6359 45.394L41.4603 46.2106L50.1359 37.3325C50.1396 37.3287 50.1424 37.325 50.1462 37.3212ZM9.40625 51.3967V39.8683H14.5111V40.3514L14.5109 40.3558V50.8127L14.5111 50.8151V51.3967H9.40625ZM46.0249 46.7459C47.3224 46.3297 48.3715 46.3672 48.904 46.85C49.1909 47.1106 49.3034 47.5043 49.2115 47.9281C49.0634 48.6115 48.468 49.1825 47.6196 49.4543L36.1165 53.1434C35.9524 53.1959 35.7931 53.2475 35.6374 53.2981C32.8859 54.1868 31.505 54.634 28.4825 53.6937C28.475 53.6909 28.4665 53.689 28.4581 53.6862L15.9174 50.2757V40.9522L22.7478 39.83C23.5859 39.6922 24.335 39.5553 24.9959 39.4353C27.4006 38.9984 28.8528 38.735 30.7015 39.0744L34.5293 39.7765C36.0218 40.2669 36.5365 41.2878 36.3809 42.035C36.2018 42.8984 35.2493 43.3718 33.9556 43.2406C32.8287 43.1253 31.5481 42.9603 30.4184 42.815C30.1165 42.7756 29.8268 42.7381 29.5578 42.7043C28.2134 42.5056 27.2656 43.4459 27.0237 44.48C26.9722 44.7003 26.9515 44.9347 26.9665 45.1709C27.0181 46.0259 27.529 46.9128 28.6953 47.285C28.7243 47.2943 29.1125 47.3665 29.1125 47.3665L34.8546 48.4165C34.8603 48.4175 34.8668 48.4184 34.8734 48.4193C36.0584 48.604 36.5712 48.5881 37.2978 48.4596C37.4881 48.4259 38.2643 48.2684 38.464 48.23L39.7296 47.9825C39.7296 47.9825 45.9987 46.7543 46.0249 46.7459Z" fill="#176FC0"/>
<path d="M26.3814 32.7456C26.628 32.7456 26.8567 32.6164 26.9838 32.4051L28.2523 30.2981L29.9332 32.9692C30.0647 33.1781 30.2944 33.3022 30.5431 33.2977C30.7899 33.2925 31.016 33.1583 31.1386 32.944L33.8447 28.2156L37.4792 34.839C37.6005 35.0601 37.8309 35.1993 38.0831 35.2038C38.0872 35.2038 38.0914 35.2039 38.0956 35.2039C38.343 35.2039 38.5727 35.0737 38.6996 34.8606L40.9639 31.0594H46.4241C46.8124 31.0594 47.1272 30.7446 47.1272 30.3563C47.1272 29.968 46.8124 29.6532 46.4241 29.6532H40.5644C40.3166 29.6532 40.0871 29.7836 39.9603 29.9965L38.1206 33.0848L34.474 26.4392C34.3516 26.2162 34.1183 26.0767 33.8639 26.0743C33.8617 26.0743 33.8597 26.0743 33.8575 26.0743C33.6055 26.0743 33.3726 26.2093 33.2473 26.4282L30.4997 31.2291L28.8341 28.5824C28.7053 28.3778 28.4806 28.2538 28.239 28.2538C28.2367 28.2538 28.2344 28.2538 28.2321 28.2538C27.9879 28.2562 27.7626 28.3851 27.6367 28.5942L25.984 31.3393H21.9879C21.5996 31.3393 21.2848 31.6542 21.2848 32.0425C21.2848 32.4308 21.5996 32.7456 21.9879 32.7456H26.3814Z" stroke="#176FC0" stroke-width="0.75"/>
<path d="M47.6651 13.2308C47.2768 13.2308 46.962 13.5456 46.962 13.9339V16.008H44.8881C44.4998 16.008 44.185 16.3229 44.185 16.7112C44.185 17.0995 44.4998 17.4143 44.8881 17.4143H46.962V19.4885C46.962 19.8768 47.2768 20.1916 47.6651 20.1916C48.0535 20.1916 48.3683 19.8768 48.3683 19.4885V17.4143H50.4422C50.8305 17.4143 51.1453 17.0995 51.1453 16.7112C51.1453 16.3229 50.8305 16.008 50.4422 16.008H48.3683V13.9339C48.3683 13.5456 48.0535 13.2308 47.6651 13.2308Z" stroke="#176FC0" stroke-width="0.75"/>
<path d="M50.1462 37.3212C53.5717 33.6591 54.5534 28.1214 52.6705 23.3739C54.6911 21.851 55.9999 19.4312 55.9999 16.7112C55.9999 12.1151 52.261 8.37598 47.6652 8.37598C45.7773 8.37598 43.9287 9.02388 42.4596 10.2003C42.1565 10.4431 42.1076 10.8856 42.3503 11.1887C42.593 11.4917 43.0355 11.5407 43.3386 11.298C44.5769 10.3063 46.0729 9.78222 47.6651 9.78222C51.4854 9.78222 54.5936 12.8906 54.5936 16.7112C54.5936 20.5334 51.4855 23.6429 47.6651 23.6429C44.1079 23.6429 41.1695 20.9487 40.7793 17.4939C40.7786 17.4859 40.7773 17.4779 40.7763 17.4698C40.749 17.2205 40.7339 16.9676 40.7339 16.7112C40.7339 15.6259 40.9777 14.5881 41.4585 13.6264C41.6321 13.2791 41.4913 12.8567 41.144 12.683C40.7964 12.5095 40.3743 12.6502 40.2006 12.9975C39.6213 14.1561 39.3276 15.4056 39.3276 16.7111C39.3276 16.8292 39.3307 16.9466 39.3356 17.0636C37.5602 17.6982 35.9029 18.7419 34.5141 20.1077L33.737 20.8718C33.7332 20.868 33.7304 20.8652 33.7266 20.8615L32.9626 20.1087C30.4904 17.6712 27.2542 16.309 24.0826 16.3746C21.4435 16.429 19.1082 17.4631 17.3298 19.3643C17.0645 19.6484 17.0795 20.0937 17.3635 20.359C17.6476 20.6234 18.092 20.6093 18.3573 20.3252C19.8704 18.7071 21.8598 17.8268 24.1117 17.7809C26.9054 17.7237 29.7713 18.9377 31.9754 21.1099L32.7404 21.8637C33.1098 22.2274 33.4248 22.4084 33.7388 22.4084C34.0501 22.4084 34.3604 22.2302 34.7232 21.874L35.5004 21.1099C36.6682 19.962 38.0457 19.0682 39.5204 18.495C40.3395 22.2382 43.6799 25.049 47.665 25.049C49.0293 25.049 50.3181 24.7194 51.4559 24.1355C53.014 28.3262 52.1194 33.1473 49.1241 36.3545L39.0303 46.6868L38.1949 46.85C37.9924 46.8893 37.8134 46.925 37.6503 46.9578C36.5909 47.1725 36.3378 47.2231 35.0974 47.0318L29.0834 45.9322C28.264 45.649 28.3465 44.9965 28.3925 44.8006C28.4646 44.4959 28.7478 44.0037 29.3562 44.0956C29.3618 44.0965 29.3675 44.0975 29.3731 44.0984C29.644 44.1331 29.9346 44.1706 30.2384 44.209C31.3775 44.3562 32.6675 44.5222 33.8131 44.6393C36.1568 44.8765 37.4824 43.6465 37.7581 42.3209C38.0384 40.97 37.2687 39.1737 34.9156 38.4228C34.8875 38.4144 34.8584 38.4069 34.8284 38.4012L30.9556 37.6906C28.8537 37.3053 27.2187 37.6025 24.7437 38.0525C24.0893 38.1715 23.3468 38.3056 22.52 38.4415L20.6844 38.7434L18.3519 36.3556C15.049 32.8147 14.3169 27.2684 16.5744 22.865C16.7515 22.52 16.6147 22.0963 16.2697 21.9191C15.9237 21.7419 15.5 21.8778 15.3228 22.2238C12.7991 27.1475 13.6241 33.3556 17.33 37.3212C17.3337 37.325 17.3375 37.3287 17.3403 37.3325L18.9903 39.0219L15.9174 39.527V39.4467C15.9174 38.9038 15.4384 38.4622 14.8496 38.4622H9.065C8.47775 38.4622 8 38.9038 8 39.4467V51.8184C8 52.3613 8.47775 52.803 9.065 52.803H14.8497C15.4385 52.803 15.9175 52.3613 15.9175 51.8184V51.7332L28.0775 55.04C29.4096 55.4534 30.4831 55.624 31.4628 55.624C33.0134 55.624 34.3306 55.1984 36.0706 54.6359C36.2253 54.5862 36.3837 54.5346 36.5468 54.4821L48.049 50.794C49.3821 50.3665 50.3309 49.4065 50.5859 48.2262C50.7837 47.3112 50.508 46.4075 49.848 45.8084C49.3137 45.3237 48.0574 44.6281 45.6359 45.394L41.4603 46.2106L50.1359 37.3325C50.1396 37.3287 50.1424 37.325 50.1462 37.3212ZM9.40625 51.3967V39.8683H14.5111V40.3514L14.5109 40.3558V50.8127L14.5111 50.8151V51.3967H9.40625ZM46.0249 46.7459C47.3224 46.3297 48.3715 46.3672 48.904 46.85C49.1909 47.1106 49.3034 47.5043 49.2115 47.9281C49.0634 48.6115 48.468 49.1825 47.6196 49.4543L36.1165 53.1434C35.9524 53.1959 35.7931 53.2475 35.6374 53.2981C32.8859 54.1868 31.505 54.634 28.4825 53.6937C28.475 53.6909 28.4665 53.689 28.4581 53.6862L15.9174 50.2757V40.9522L22.7478 39.83C23.5859 39.6922 24.335 39.5553 24.9959 39.4353C27.4006 38.9984 28.8528 38.735 30.7015 39.0744L34.5293 39.7765C36.0218 40.2669 36.5365 41.2878 36.3809 42.035C36.2018 42.8984 35.2493 43.3718 33.9556 43.2406C32.8287 43.1253 31.5481 42.9603 30.4184 42.815C30.1165 42.7756 29.8268 42.7381 29.5578 42.7043C28.2134 42.5056 27.2656 43.4459 27.0237 44.48C26.9722 44.7003 26.9515 44.9347 26.9665 45.1709C27.0181 46.0259 27.529 46.9128 28.6953 47.285C28.7243 47.2943 29.1125 47.3665 29.1125 47.3665L34.8546 48.4165C34.8603 48.4175 34.8668 48.4184 34.8734 48.4193C36.0584 48.604 36.5712 48.5881 37.2978 48.4596C37.4881 48.4259 38.2643 48.2684 38.464 48.23L39.7296 47.9825C39.7296 47.9825 45.9987 46.7543 46.0249 46.7459Z" stroke="#176FC0" stroke-width="0.75"/>
</svg>
