<svg width="64" height="64" viewBox="0 0 64 64" fill="none" xmlns="http://www.w3.org/2000/svg">
<path d="M0 8C0 3.58172 3.58172 0 8 0H56C60.4183 0 64 3.58172 64 8V56C64 60.4183 60.4183 64 56 64H8C3.58172 64 0 60.4183 0 56V8Z" fill="white"/>
<g clip-path="url(#clip0_2774_4395)">
<path d="M19.999 27.4531C20.3872 27.4531 20.7021 27.1385 20.7021 26.75C20.7021 26.3615 20.3872 26.0469 19.999 26.0469H16.9053V23C16.9053 22.6115 16.5903 22.2969 16.2021 22.2969H8.70215C8.31396 22.2969 7.99902 22.6115 7.99902 23V30.5C7.99902 30.8885 8.31396 31.2031 8.70215 31.2031H16.2021C16.5903 31.2031 16.9053 30.8885 16.9053 30.5V27.4531H19.999ZM9.40527 23.7031H15.499V26.9844H9.40527V23.7031ZM15.499 29.7969H9.40527V28.3906H15.499V29.7969Z" fill="#176FC0"/>
<path d="M13.1553 24.6406H11.749C11.3608 24.6406 11.0459 24.9552 11.0459 25.3438C11.0459 25.7323 11.3608 26.0469 11.749 26.0469H13.1553C13.5435 26.0469 13.8584 25.7323 13.8584 25.3438C13.8584 24.9552 13.5435 24.6406 13.1553 24.6406Z" fill="#176FC0"/>
<path d="M25.1152 10.3438H23.709C23.3208 10.3438 23.0059 10.6583 23.0059 11.0469C23.0059 11.4354 23.3208 11.75 23.709 11.75H25.1152C25.5038 11.75 25.8184 11.4354 25.8184 11.0469C25.8184 10.6583 25.5038 10.3438 25.1152 10.3438Z" fill="#176FC0"/>
<path d="M55.2959 16.4844H47.7959C47.4077 16.4844 47.0928 16.799 47.0928 17.1875V20.2344H40.3896C40.0015 20.2344 39.6865 20.549 39.6865 20.9375V31.6503L35.6084 29.7068V12.4531C35.6084 12.0646 35.2935 11.75 34.9053 11.75H28.8646V8.70312C28.8646 8.31458 28.55 8 28.1615 8H20.6615C20.2733 8 19.9584 8.31458 19.9584 8.70312V16.2031C19.9584 16.5917 20.2733 16.9062 20.6615 16.9062H28.1615C28.55 16.9062 28.8646 16.5917 28.8646 16.2031V13.1562H34.2021V29.0366L32.3015 28.131C32.1115 28.0402 31.8862 28.0402 31.6965 28.131L27.101 30.3209V26.75C27.101 26.3615 26.786 26.0469 26.3978 26.0469H22.9756C22.5874 26.0469 22.2725 26.3615 22.2725 26.75C22.2725 27.1385 22.5874 27.4531 22.9756 27.4531H25.6947V30.9911L19.6965 33.8497C19.4548 33.9651 19.2959 34.2137 19.2959 34.4844V49.5781C19.2959 49.8491 19.4519 50.0963 19.6965 50.2128L25.46 52.9594C25.8104 53.1263 26.2301 52.978 26.3971 52.6272C26.5641 52.2767 26.4154 51.8571 26.0649 51.6901L20.7021 49.1343V35.5984L31.2959 40.647V54.1829L28.6039 52.9C28.2531 52.733 27.8337 52.8817 27.6667 53.2322C27.4998 53.583 27.6484 54.0023 27.9989 54.1697L31.6965 55.9315C31.7789 55.9711 31.8958 56 31.999 56C32.1056 56 32.2235 55.9689 32.3015 55.9315L44.3015 50.2128C44.5461 50.0963 44.7018 49.8491 44.7018 49.5781V40.9883C44.7018 40.5997 44.3872 40.2852 43.9987 40.2852C43.6105 40.2852 43.2955 40.5997 43.2955 40.9883V49.1343L32.7018 54.1829V40.647L43.2955 35.5984V37.9766C43.2955 38.3647 43.6105 38.6797 43.9987 38.6797C44.3872 38.6797 44.7018 38.3647 44.7018 37.9766V34.4844C44.7018 34.2225 44.5516 33.9691 44.3015 33.8497L44.2957 33.8468C44.2953 33.8468 44.2953 33.8468 44.2953 33.8468L41.0928 32.3204V21.6406H47.0928V24.6875C47.0928 25.076 47.4077 25.3906 47.7959 25.3906H55.2959C55.6841 25.3906 55.999 25.076 55.999 24.6875V17.1875C55.999 16.799 55.6841 16.4844 55.2959 16.4844ZM21.3646 9.40625H27.4584V12.6875H21.3646V9.40625ZM27.4584 15.5H21.3646V14.0938H27.4584V15.5ZM39.6865 33.2081V35.7606L35.6084 37.7041V31.2646L39.6865 33.2081ZM34.2021 38.3743L32.7021 39.0891V29.8796L34.2021 30.5945V38.3743ZM25.6947 32.549V36.4198L21.6334 34.4844L25.6947 32.549ZM27.101 37.09V31.8788L31.2959 29.8796V39.0891L27.101 37.09ZM42.3646 34.4844L41.0928 35.0905V33.8783L42.3646 34.4844ZM48.499 17.8906H54.5928V21.1719H48.499V17.8906ZM54.5928 23.9844H48.499V22.5781H54.5928V23.9844Z" fill="#176FC0"/>
<path d="M50.8428 20.2344H52.249C52.6372 20.2344 52.9521 19.9198 52.9521 19.5312C52.9521 19.1427 52.6372 18.8281 52.249 18.8281H50.8428C50.4546 18.8281 50.1396 19.1427 50.1396 19.5312C50.1396 19.9198 50.4546 20.2344 50.8428 20.2344Z" fill="#176FC0"/>
</g>
<defs>
<clipPath id="clip0_2774_4395">
<rect width="48" height="48" fill="white" transform="translate(8 8)"/>
</clipPath>
</defs>
</svg>
