<svg width="64" height="64" viewBox="0 0 64 64" fill="none" xmlns="http://www.w3.org/2000/svg">
<path d="M0 8C0 3.58172 3.58172 0 8 0H56C60.4183 0 64 3.58172 64 8V56C64 60.4183 60.4183 64 56 64H8C3.58172 64 0 60.4183 0 56V8Z" fill="white"/>
<path d="M39.9729 28.0446C40.7727 27.253 41.2691 26.1555 41.2691 24.944C41.2691 22.5376 39.3109 20.5799 36.904 20.5799C35.0494 20.5799 33.4056 21.7556 32.7918 23.4785C32.5345 23.4311 32.2699 23.405 31.999 23.405C31.7282 23.405 31.4636 23.4311 31.2063 23.4785C30.5925 21.7555 28.9486 20.5799 27.094 20.5799C24.6871 20.5799 22.729 22.5376 22.729 24.944C22.729 26.1555 23.2255 27.253 24.0253 28.0446C22.1067 29.1375 20.8717 31.2069 20.8717 33.4576C20.8717 33.846 21.1865 34.1607 21.5748 34.1607C21.9631 34.1607 22.2779 33.846 22.2779 33.4576C22.2779 31.4698 23.5225 29.6647 25.3774 28.9568C25.9047 29.1832 26.4849 29.309 27.0941 29.309C27.3624 29.309 27.6281 29.2832 27.8882 29.2352C28.1104 29.8568 28.4695 30.4137 28.9294 30.8693C26.9935 31.9655 25.7769 34.0196 25.7769 36.2829C25.7769 36.6714 26.0917 36.9861 26.48 36.9861C26.8683 36.9861 27.1831 36.6714 27.1831 36.2829C27.1831 34.343 28.3378 32.601 30.1247 31.8452C30.1725 31.8249 30.2166 31.7997 30.2573 31.7709C30.7912 32.0043 31.3801 32.1346 31.999 32.1346C32.6084 32.1346 33.1887 32.0087 33.716 31.7822C35.5701 32.4901 36.8149 34.297 36.8149 36.2829C36.8149 36.6714 37.1297 36.9861 37.518 36.9861C37.9063 36.9861 38.2211 36.6714 38.2211 36.2829C38.2211 34.0343 36.9858 31.9632 35.0678 30.87C35.5282 30.4143 35.8875 29.8571 36.1099 29.2352C36.37 29.2832 36.6356 29.309 36.904 29.309C37.5131 29.309 38.0934 29.1832 38.6205 28.9568C40.4755 29.6647 41.72 31.4696 41.72 33.4576C41.72 33.846 42.0348 34.1607 42.4231 34.1607C42.8115 34.1607 43.1263 33.846 43.1263 33.4576C43.1265 31.2068 41.8914 29.1375 39.9729 28.0446ZM27.6344 27.7698C27.6344 27.7975 27.636 27.8247 27.6364 27.8521C27.4593 27.8851 27.2779 27.9028 27.0941 27.9028C25.4626 27.9028 24.1353 26.5755 24.1353 24.944C24.1353 23.3131 25.4626 21.9862 27.0941 21.9862C28.3528 21.9862 29.4678 22.7848 29.8827 23.9543C28.543 24.7003 27.6344 26.1307 27.6344 27.7698ZM29.0406 27.7698C29.0406 26.1386 30.3678 24.8113 31.9991 24.8113C33.6305 24.8113 34.9576 26.1385 34.9576 27.7698C34.9576 29.4012 33.6305 30.7283 31.9991 30.7283C30.3678 30.7283 29.0406 29.4011 29.0406 27.7698ZM36.3617 27.8521C36.3622 27.8247 36.3638 27.7974 36.3638 27.7698C36.3638 26.1307 35.4551 24.7004 34.1154 23.9544C34.5304 22.7849 35.6454 21.9863 36.904 21.9863C38.5355 21.9863 39.8628 23.3131 39.8628 24.9441C39.8628 26.5755 38.5355 27.9029 36.904 27.9029C36.7202 27.9028 36.5388 27.8851 36.3617 27.8521Z" fill="#176FC0"/>
<path d="M50.2083 38.388V25.6073C51.9609 25.2765 53.2911 23.7349 53.2911 21.8876C53.2911 19.7997 51.5926 18.1012 49.5048 18.1012C48.3573 18.1012 47.3282 18.615 46.6334 19.4237L35.572 13.0369C35.7095 12.6452 35.7853 12.2244 35.7853 11.7861C35.7853 9.69848 34.0868 8 31.9991 8C29.9114 8 28.2128 9.69848 28.2128 11.7862C28.2128 12.2245 28.2884 12.6452 28.4261 13.037L17.3647 19.4237C16.6698 18.615 15.6407 18.1012 14.4933 18.1012C12.4055 18.1012 10.707 19.7997 10.707 21.8876C10.707 23.7349 12.0372 25.2764 13.7898 25.6073V38.388C12.0372 38.7188 10.707 40.2604 10.707 42.1078C10.707 44.1956 12.4055 45.8941 14.4933 45.8941C15.639 45.8941 16.6666 45.3819 17.3614 44.5755L28.426 50.9633C28.2884 51.355 28.2128 51.7757 28.2128 52.2138C28.2128 54.3016 29.9113 56.0001 31.9991 56.0001C34.0869 56.0001 35.7854 54.3016 35.7854 52.2138C35.7854 51.7757 35.7097 51.355 35.5722 50.9633L46.6367 44.5755C47.3316 45.382 48.3592 45.8941 49.5049 45.8941C51.5927 45.8941 53.2912 44.1956 53.2912 42.1078C53.2911 40.2603 51.9608 38.7188 50.2083 38.388ZM49.5048 19.5075C50.8171 19.5075 51.8848 20.5752 51.8848 21.8876C51.8848 23.1999 50.8171 24.2676 49.5048 24.2676C48.1924 24.2676 47.1247 23.1999 47.1247 21.8876C47.1247 20.5752 48.1924 19.5075 49.5048 19.5075ZM31.9991 9.40626C33.3114 9.40626 34.3791 10.4739 34.3791 11.7862C34.3791 13.0973 33.3134 14.1642 32.0027 14.1662L31.9991 14.166L31.9954 14.1662C30.6848 14.1642 29.619 13.0973 29.619 11.7862C29.619 10.4739 30.6867 9.40626 31.9991 9.40626ZM12.1133 21.8876C12.1133 20.5752 13.181 19.5075 14.4933 19.5075C15.8057 19.5075 16.8734 20.5752 16.8734 21.8876C16.8734 23.1999 15.8057 24.2676 14.4933 24.2676C13.181 24.2676 12.1133 23.1999 12.1133 21.8876ZM14.4933 44.4877C13.181 44.4877 12.1133 43.42 12.1133 42.1077C12.1133 40.7953 13.181 39.7276 14.4933 39.7276C15.8057 39.7276 16.8734 40.7953 16.8734 42.1077C16.8734 43.42 15.8057 44.4877 14.4933 44.4877ZM31.9991 54.5937C30.6868 54.5937 29.619 53.526 29.619 52.2137C29.619 50.9014 30.6868 49.8337 31.9991 49.8337C33.3114 49.8337 34.3791 50.9014 34.3791 52.2137C34.3791 53.526 33.3114 54.5937 31.9991 54.5937ZM34.8674 49.7464C34.3183 49.1089 33.5613 48.656 32.7021 48.494V45.7851C32.7021 45.3967 32.3873 45.082 31.999 45.082C31.6107 45.082 31.2959 45.3967 31.2959 45.7851V48.494C30.4368 48.6561 29.6798 49.1089 29.1306 49.7464L18.0663 43.3586C18.2039 42.9667 18.2795 42.546 18.2795 42.1078C18.2795 41.6691 18.2037 41.248 18.0659 40.8558L20.4125 39.5007C20.7487 39.3064 20.8639 38.8764 20.6697 38.5401C20.4756 38.2038 20.0455 38.0888 19.7091 38.2828L17.3605 39.6392C16.8114 39.0023 16.0547 38.5498 15.196 38.3879V25.6074C16.0549 25.4455 16.8119 24.9928 17.361 24.3555L19.7128 25.7137C19.8235 25.7776 19.9445 25.808 20.0638 25.808C20.3067 25.808 20.5431 25.6819 20.6733 25.4564C20.8675 25.1202 20.7523 24.69 20.416 24.4959L18.066 23.1387C18.2036 22.7468 18.2794 22.3259 18.2794 21.8876C18.2794 21.451 18.2043 21.032 18.0677 20.6415L29.1306 14.2538C29.6797 14.8911 30.4366 15.3439 31.2956 15.506V18.2151C31.2956 18.6035 31.6104 18.9182 31.9987 18.9182C32.387 18.9182 32.7018 18.6035 32.7018 18.2151V15.506C33.5608 15.3439 34.3177 14.8911 34.8668 14.2538L45.9298 20.6415C45.7933 21.032 45.7181 21.451 45.7181 21.8876C45.7181 22.3259 45.7938 22.7468 45.9315 23.1387L43.5814 24.4959C43.2451 24.69 43.1299 25.1202 43.3242 25.4564C43.4544 25.6819 43.6907 25.808 43.9336 25.808C44.0529 25.808 44.1739 25.7776 44.2846 25.7137L46.6365 24.3555C47.1856 24.9928 47.9426 25.4455 48.8014 25.6074V38.3879C47.9428 38.5498 47.1861 39.0023 46.6369 39.6392L44.2883 38.2828C43.952 38.089 43.522 38.2038 43.3277 38.5401C43.1335 38.8764 43.2487 39.3064 43.585 39.5007L45.9315 40.8558C45.7937 41.248 45.7179 41.6691 45.7179 42.1078C45.7179 42.546 45.7935 42.9668 45.9312 43.3586L34.8674 49.7464ZM49.5048 44.4877C48.1924 44.4877 47.1247 43.42 47.1247 42.1077C47.1247 40.7953 48.1924 39.7276 49.5048 39.7276C50.8171 39.7276 51.8848 40.7953 51.8848 42.1077C51.8848 43.42 50.8171 44.4877 49.5048 44.4877Z" fill="#176FC0"/>
<path d="M37.8883 39.2649H35.7958C35.4074 39.2649 35.0926 39.5796 35.0926 39.968C35.0926 40.3564 35.4074 40.6711 35.7958 40.6711H37.8883C38.2766 40.6711 38.5914 40.3564 38.5914 39.968C38.5914 39.5796 38.2766 39.2649 37.8883 39.2649Z" fill="#176FC0"/>
<path d="M37.8882 42.0188H26.1098C25.7214 42.0188 25.4066 42.3335 25.4066 42.7219C25.4066 43.1103 25.7214 43.425 26.1098 43.425H37.8883C38.2766 43.425 38.5914 43.1103 38.5914 42.7219C38.5914 42.3335 38.2765 42.0188 37.8882 42.0188Z" fill="#176FC0"/>
<path d="M26.1098 40.6711H26.1195C26.5078 40.6711 26.8226 40.3564 26.8226 39.968C26.8226 39.5796 26.5078 39.2649 26.1195 39.2649H26.1098C25.7214 39.2649 25.4066 39.5796 25.4066 39.968C25.4066 40.3564 25.7214 40.6711 26.1098 40.6711Z" fill="#176FC0"/>
<path d="M28.555 40.6711C28.9433 40.6711 29.2581 40.3564 29.2581 39.968C29.2581 39.5796 28.9433 39.2649 28.555 39.2649H28.5452C28.1569 39.2649 27.8421 39.5796 27.8421 39.968C27.8421 40.3564 28.1569 40.6711 28.5452 40.6711H28.555Z" fill="#176FC0"/>
<path d="M30.9904 40.6711C31.3787 40.6711 31.6935 40.3564 31.6935 39.968C31.6935 39.5796 31.3787 39.2649 30.9904 39.2649H30.9806C30.5923 39.2649 30.2775 39.5796 30.2775 39.968C30.2775 40.3564 30.5923 40.6711 30.9806 40.6711H30.9904Z" fill="#176FC0"/>
<path d="M39.9729 28.0446C40.7727 27.253 41.2691 26.1555 41.2691 24.944C41.2691 22.5376 39.3109 20.5799 36.904 20.5799C35.0494 20.5799 33.4056 21.7556 32.7918 23.4785C32.5345 23.4311 32.2699 23.405 31.999 23.405C31.7282 23.405 31.4636 23.4311 31.2063 23.4785C30.5925 21.7555 28.9486 20.5799 27.094 20.5799C24.6871 20.5799 22.729 22.5376 22.729 24.944C22.729 26.1555 23.2255 27.253 24.0253 28.0446C22.1067 29.1375 20.8717 31.2069 20.8717 33.4576C20.8717 33.846 21.1865 34.1607 21.5748 34.1607C21.9631 34.1607 22.2779 33.846 22.2779 33.4576C22.2779 31.4698 23.5225 29.6647 25.3774 28.9568C25.9047 29.1832 26.4849 29.309 27.0941 29.309C27.3624 29.309 27.6281 29.2832 27.8882 29.2352C28.1104 29.8568 28.4695 30.4137 28.9294 30.8693C26.9935 31.9655 25.7769 34.0196 25.7769 36.2829C25.7769 36.6714 26.0917 36.9861 26.48 36.9861C26.8683 36.9861 27.1831 36.6714 27.1831 36.2829C27.1831 34.343 28.3378 32.601 30.1247 31.8452C30.1725 31.8249 30.2166 31.7997 30.2573 31.7709C30.7912 32.0043 31.3801 32.1346 31.999 32.1346C32.6084 32.1346 33.1887 32.0087 33.716 31.7822C35.5701 32.4901 36.8149 34.297 36.8149 36.2829C36.8149 36.6714 37.1297 36.9861 37.518 36.9861C37.9063 36.9861 38.2211 36.6714 38.2211 36.2829C38.2211 34.0343 36.9858 31.9632 35.0678 30.87C35.5282 30.4143 35.8875 29.8571 36.1099 29.2352C36.37 29.2832 36.6356 29.309 36.904 29.309C37.5131 29.309 38.0934 29.1832 38.6205 28.9568C40.4755 29.6647 41.72 31.4696 41.72 33.4576C41.72 33.846 42.0348 34.1607 42.4231 34.1607C42.8115 34.1607 43.1263 33.846 43.1263 33.4576C43.1265 31.2068 41.8914 29.1375 39.9729 28.0446ZM27.6344 27.7698C27.6344 27.7975 27.636 27.8247 27.6364 27.8521C27.4593 27.8851 27.2779 27.9028 27.0941 27.9028C25.4626 27.9028 24.1353 26.5755 24.1353 24.944C24.1353 23.3131 25.4626 21.9862 27.0941 21.9862C28.3528 21.9862 29.4678 22.7848 29.8827 23.9543C28.543 24.7003 27.6344 26.1307 27.6344 27.7698ZM29.0406 27.7698C29.0406 26.1386 30.3678 24.8113 31.9991 24.8113C33.6305 24.8113 34.9576 26.1385 34.9576 27.7698C34.9576 29.4012 33.6305 30.7283 31.9991 30.7283C30.3678 30.7283 29.0406 29.4011 29.0406 27.7698ZM36.3617 27.8521C36.3622 27.8247 36.3638 27.7974 36.3638 27.7698C36.3638 26.1307 35.4551 24.7004 34.1154 23.9544C34.5304 22.7849 35.6454 21.9863 36.904 21.9863C38.5355 21.9863 39.8628 23.3131 39.8628 24.9441C39.8628 26.5755 38.5355 27.9029 36.904 27.9029C36.7202 27.9028 36.5388 27.8851 36.3617 27.8521Z" stroke="#176FC0" stroke-width="0.75"/>
<path d="M50.2083 38.388V25.6073C51.9609 25.2765 53.2911 23.7349 53.2911 21.8876C53.2911 19.7997 51.5926 18.1012 49.5048 18.1012C48.3573 18.1012 47.3282 18.615 46.6334 19.4237L35.572 13.0369C35.7095 12.6452 35.7853 12.2244 35.7853 11.7861C35.7853 9.69848 34.0868 8 31.9991 8C29.9114 8 28.2128 9.69848 28.2128 11.7862C28.2128 12.2245 28.2884 12.6452 28.4261 13.037L17.3647 19.4237C16.6698 18.615 15.6407 18.1012 14.4933 18.1012C12.4055 18.1012 10.707 19.7997 10.707 21.8876C10.707 23.7349 12.0372 25.2764 13.7898 25.6073V38.388C12.0372 38.7188 10.707 40.2604 10.707 42.1078C10.707 44.1956 12.4055 45.8941 14.4933 45.8941C15.639 45.8941 16.6666 45.3819 17.3614 44.5755L28.426 50.9633C28.2884 51.355 28.2128 51.7757 28.2128 52.2138C28.2128 54.3016 29.9113 56.0001 31.9991 56.0001C34.0869 56.0001 35.7854 54.3016 35.7854 52.2138C35.7854 51.7757 35.7097 51.355 35.5722 50.9633L46.6367 44.5755C47.3316 45.382 48.3592 45.8941 49.5049 45.8941C51.5927 45.8941 53.2912 44.1956 53.2912 42.1078C53.2911 40.2603 51.9608 38.7188 50.2083 38.388ZM49.5048 19.5075C50.8171 19.5075 51.8848 20.5752 51.8848 21.8876C51.8848 23.1999 50.8171 24.2676 49.5048 24.2676C48.1924 24.2676 47.1247 23.1999 47.1247 21.8876C47.1247 20.5752 48.1924 19.5075 49.5048 19.5075ZM31.9991 9.40626C33.3114 9.40626 34.3791 10.4739 34.3791 11.7862C34.3791 13.0973 33.3134 14.1642 32.0027 14.1662L31.9991 14.166L31.9954 14.1662C30.6848 14.1642 29.619 13.0973 29.619 11.7862C29.619 10.4739 30.6867 9.40626 31.9991 9.40626ZM12.1133 21.8876C12.1133 20.5752 13.181 19.5075 14.4933 19.5075C15.8057 19.5075 16.8734 20.5752 16.8734 21.8876C16.8734 23.1999 15.8057 24.2676 14.4933 24.2676C13.181 24.2676 12.1133 23.1999 12.1133 21.8876ZM14.4933 44.4877C13.181 44.4877 12.1133 43.42 12.1133 42.1077C12.1133 40.7953 13.181 39.7276 14.4933 39.7276C15.8057 39.7276 16.8734 40.7953 16.8734 42.1077C16.8734 43.42 15.8057 44.4877 14.4933 44.4877ZM31.9991 54.5937C30.6868 54.5937 29.619 53.526 29.619 52.2137C29.619 50.9014 30.6868 49.8337 31.9991 49.8337C33.3114 49.8337 34.3791 50.9014 34.3791 52.2137C34.3791 53.526 33.3114 54.5937 31.9991 54.5937ZM34.8674 49.7464C34.3183 49.1089 33.5613 48.656 32.7021 48.494V45.7851C32.7021 45.3967 32.3873 45.082 31.999 45.082C31.6107 45.082 31.2959 45.3967 31.2959 45.7851V48.494C30.4368 48.6561 29.6798 49.1089 29.1306 49.7464L18.0663 43.3586C18.2039 42.9667 18.2795 42.546 18.2795 42.1078C18.2795 41.6691 18.2037 41.248 18.0659 40.8558L20.4125 39.5007C20.7487 39.3064 20.8639 38.8764 20.6697 38.5401C20.4756 38.2038 20.0455 38.0888 19.7091 38.2828L17.3605 39.6392C16.8114 39.0023 16.0547 38.5498 15.196 38.3879V25.6074C16.0549 25.4455 16.8119 24.9928 17.361 24.3555L19.7128 25.7137C19.8235 25.7776 19.9445 25.808 20.0638 25.808C20.3067 25.808 20.5431 25.6819 20.6733 25.4564C20.8675 25.1202 20.7523 24.69 20.416 24.4959L18.066 23.1387C18.2036 22.7468 18.2794 22.3259 18.2794 21.8876C18.2794 21.451 18.2043 21.032 18.0677 20.6415L29.1306 14.2538C29.6797 14.8911 30.4366 15.3439 31.2956 15.506V18.2151C31.2956 18.6035 31.6104 18.9182 31.9987 18.9182C32.387 18.9182 32.7018 18.6035 32.7018 18.2151V15.506C33.5608 15.3439 34.3177 14.8911 34.8668 14.2538L45.9298 20.6415C45.7933 21.032 45.7181 21.451 45.7181 21.8876C45.7181 22.3259 45.7938 22.7468 45.9315 23.1387L43.5814 24.4959C43.2451 24.69 43.1299 25.1202 43.3242 25.4564C43.4544 25.6819 43.6907 25.808 43.9336 25.808C44.0529 25.808 44.1739 25.7776 44.2846 25.7137L46.6365 24.3555C47.1856 24.9928 47.9426 25.4455 48.8014 25.6074V38.3879C47.9428 38.5498 47.1861 39.0023 46.6369 39.6392L44.2883 38.2828C43.952 38.089 43.522 38.2038 43.3277 38.5401C43.1335 38.8764 43.2487 39.3064 43.585 39.5007L45.9315 40.8558C45.7937 41.248 45.7179 41.6691 45.7179 42.1078C45.7179 42.546 45.7935 42.9668 45.9312 43.3586L34.8674 49.7464ZM49.5048 44.4877C48.1924 44.4877 47.1247 43.42 47.1247 42.1077C47.1247 40.7953 48.1924 39.7276 49.5048 39.7276C50.8171 39.7276 51.8848 40.7953 51.8848 42.1077C51.8848 43.42 50.8171 44.4877 49.5048 44.4877Z" stroke="#176FC0" stroke-width="0.75"/>
<path d="M37.8883 39.2649H35.7958C35.4074 39.2649 35.0926 39.5796 35.0926 39.968C35.0926 40.3564 35.4074 40.6711 35.7958 40.6711H37.8883C38.2766 40.6711 38.5914 40.3564 38.5914 39.968C38.5914 39.5796 38.2766 39.2649 37.8883 39.2649Z" stroke="#176FC0" stroke-width="0.75"/>
<path d="M37.8882 42.0188H26.1098C25.7214 42.0188 25.4066 42.3335 25.4066 42.7219C25.4066 43.1103 25.7214 43.425 26.1098 43.425H37.8883C38.2766 43.425 38.5914 43.1103 38.5914 42.7219C38.5914 42.3335 38.2765 42.0188 37.8882 42.0188Z" stroke="#176FC0" stroke-width="0.75"/>
<path d="M26.1098 40.6711H26.1195C26.5078 40.6711 26.8226 40.3564 26.8226 39.968C26.8226 39.5796 26.5078 39.2649 26.1195 39.2649H26.1098C25.7214 39.2649 25.4066 39.5796 25.4066 39.968C25.4066 40.3564 25.7214 40.6711 26.1098 40.6711Z" stroke="#176FC0" stroke-width="0.75"/>
<path d="M28.555 40.6711C28.9433 40.6711 29.2581 40.3564 29.2581 39.968C29.2581 39.5796 28.9433 39.2649 28.555 39.2649H28.5452C28.1569 39.2649 27.8421 39.5796 27.8421 39.968C27.8421 40.3564 28.1569 40.6711 28.5452 40.6711H28.555Z" stroke="#176FC0" stroke-width="0.75"/>
<path d="M30.9904 40.6711C31.3787 40.6711 31.6935 40.3564 31.6935 39.968C31.6935 39.5796 31.3787 39.2649 30.9904 39.2649H30.9806C30.5923 39.2649 30.2775 39.5796 30.2775 39.968C30.2775 40.3564 30.5923 40.6711 30.9806 40.6711H30.9904Z" stroke="#176FC0" stroke-width="0.75"/>
</svg>
