<svg width="64" height="64" viewBox="0 0 64 64" fill="none" xmlns="http://www.w3.org/2000/svg">
<path d="M0 8C0 3.58172 3.58172 0 8 0H56C60.4183 0 64 3.58172 64 8V56C64 60.4183 60.4183 64 56 64H8C3.58172 64 0 60.4183 0 56V8Z" fill="white"/>
<path d="M53.8895 28.3906C52.9728 28.3906 52.1913 28.9783 51.9009 29.7968H47.8895V28.9765C47.8895 28.5883 47.5749 28.2734 47.1864 28.2734C46.7982 28.2734 46.4832 28.5883 46.4832 28.9765V32.4042C46.4832 35.9107 45.3077 39.2124 43.1731 41.7008C40.1918 45.175 36.433 47.8169 31.9989 49.5545C28.0347 48.0011 24.6 45.7178 21.789 42.7672C21.5209 42.486 21.076 42.475 20.7947 42.743C20.5139 43.0107 20.5029 43.4557 20.7706 43.7369C21.741 44.7554 22.7825 45.6965 23.8896 46.5611V51.9023C23.0715 52.1923 22.4833 52.9738 22.4833 53.8908C22.4833 55.0539 23.4296 56.0002 24.5927 56.0002C25.7558 56.0002 26.7021 55.0539 26.7021 53.8908C26.7021 52.9742 26.1143 52.1923 25.2958 51.9023V47.5913C27.2257 48.9192 29.3336 50.0306 31.6071 50.9113C31.7338 50.96 31.8663 50.9846 31.9993 50.9846C32.1319 50.9846 32.2644 50.96 32.3904 50.9113C37.0936 49.0898 41.0805 46.2993 44.2406 42.6163C45.7025 40.9124 46.7557 38.8667 47.3446 36.6405H49.7213C50.0117 37.459 50.7932 38.0468 51.7098 38.0468C52.8729 38.0468 53.8191 37.1005 53.8191 35.9374C53.8191 34.7743 52.8729 33.828 51.7098 33.828C50.7932 33.828 50.0117 34.4162 49.7213 35.2343H47.6503C47.8085 34.3114 47.8895 33.3644 47.8895 32.4042V31.203H51.9009C52.1913 32.0215 52.9728 32.6093 53.8895 32.6093C55.0525 32.6093 55.9988 31.663 55.9988 30.4999C55.9988 29.3368 55.0525 28.3906 53.8895 28.3906ZM24.5927 54.5936C24.2049 54.5936 23.8896 54.2783 23.8896 53.8905C23.8896 53.5026 24.2049 53.1873 24.5927 53.1873C24.9805 53.1873 25.2958 53.5026 25.2958 53.8905C25.2958 54.2783 24.9805 54.5936 24.5927 54.5936ZM51.7098 35.2343C52.0976 35.2343 52.4129 35.5496 52.4129 35.9374C52.4129 36.3252 52.0976 36.6405 51.7098 36.6405C51.322 36.6405 51.0067 36.3252 51.0067 35.9374C51.0067 35.5496 51.322 35.2343 51.7098 35.2343ZM53.8895 31.203C53.5016 31.203 53.1863 30.8877 53.1863 30.4999C53.1863 30.1121 53.5016 29.7968 53.8895 29.7968C54.2773 29.7968 54.5926 30.1121 54.5926 30.4999C54.5926 30.8877 54.2773 31.203 53.8895 31.203Z" fill="#176FC0"/>
<path d="M17.5146 32.4042V19.6132C20.0938 19.0035 22.7734 17.8671 25.4841 16.2328C29.5025 13.8103 34.4954 13.8103 38.5138 16.2328C39.7201 16.9597 40.9198 17.5877 42.1074 18.1151C42.1206 18.1213 42.1338 18.1275 42.1477 18.1327C43.6155 18.7819 45.0646 19.2778 46.4832 19.6132V25.9684C46.4832 26.357 46.7978 26.6716 47.1864 26.6716C47.5749 26.6716 47.8895 26.357 47.8895 25.9684V19.3551C47.8895 18.8523 47.5431 18.4102 47.0655 18.304C45.7743 18.0169 44.4515 17.5855 43.1083 17.0164V12.0979C43.9267 11.8075 44.5145 11.026 44.5145 10.1094C44.5145 8.94629 43.5682 8 42.4051 8C41.2421 8 40.2958 8.94629 40.2958 10.1094C40.2958 11.026 40.8839 11.8075 41.702 12.0979V16.3745C40.8872 15.9749 40.0658 15.5263 39.24 15.0287C34.7737 12.3359 29.2242 12.3363 24.7582 15.0287C22.0805 16.6425 19.4475 17.7448 16.9323 18.304C16.4548 18.4102 16.1084 18.8523 16.1084 19.3551V23.6093H12.0969C11.8065 22.7908 11.025 22.2031 10.1084 22.2031C8.94531 22.2031 7.99902 23.1494 7.99902 24.3124C7.99902 25.4755 8.94531 26.4218 10.1084 26.4218C11.025 26.4218 11.8065 25.834 12.0969 25.0156H16.1084V29.0468H14.2766C13.9862 28.2283 13.2047 27.6405 12.2881 27.6405C11.125 27.6405 10.1787 28.5868 10.1787 29.7499C10.1787 30.913 11.125 31.8593 12.2881 31.8593C13.2047 31.8593 13.9862 31.2715 14.2766 30.453H16.1084V32.4042C16.1084 35.7741 17.0818 38.9348 18.9227 41.5444C19.0596 41.7385 19.2772 41.8422 19.498 41.8422C19.6379 41.8422 19.7796 41.8004 19.9027 41.7136C20.2198 41.4895 20.2956 41.0508 20.0719 40.7336C18.399 38.3624 17.5146 35.4822 17.5146 32.4042ZM42.4051 9.40624C42.793 9.40624 43.1083 9.72155 43.1083 10.1094C43.1083 10.4972 42.793 10.8125 42.4051 10.8125C42.0173 10.8125 41.702 10.4972 41.702 10.1094C41.702 9.72155 42.0173 9.40624 42.4051 9.40624ZM10.1084 25.0156C9.72057 25.0156 9.40527 24.7003 9.40527 24.3124C9.40527 23.9246 9.72057 23.6093 10.1084 23.6093C10.4962 23.6093 10.8115 23.9246 10.8115 24.3124C10.8115 24.7003 10.4962 25.0156 10.1084 25.0156ZM12.2881 30.453C11.9003 30.453 11.5849 30.1377 11.5849 29.7499C11.5849 29.3621 11.9003 29.0468 12.2881 29.0468C12.6759 29.0468 12.9912 29.3621 12.9912 29.7499C12.9912 30.1377 12.6759 30.453 12.2881 30.453Z" fill="#176FC0"/>
<path d="M24.2639 20.108C24.6118 19.9359 24.7546 19.514 24.5825 19.1661C24.4104 18.8182 23.9885 18.6754 23.6402 18.8475C22.3098 19.5056 20.9739 20.0516 19.6702 20.4706C19.2219 20.6145 18.9209 21.0268 18.9209 21.4967V32.4042C18.9209 35.5752 19.9759 38.5514 21.8916 40.7846C24.514 43.841 27.7832 46.2257 31.6086 47.8737C31.7324 47.9271 31.8657 47.9539 31.999 47.9539C32.1323 47.9539 32.2656 47.9271 32.3897 47.8737C36.2148 46.2261 39.4836 43.8413 42.1056 40.7853C44.0216 38.5514 45.077 35.5752 45.077 32.4042V21.4967C45.077 21.0268 44.776 20.6145 44.3278 20.4706C42.1855 19.7825 39.9853 18.7618 37.788 17.4372C36.0419 16.3844 34.0402 15.8281 31.999 15.8281C29.9581 15.8281 27.9564 16.3844 26.2099 17.4372L26.0605 17.527C25.7269 17.7258 25.6178 18.1576 25.8166 18.4912C26.0155 18.8248 26.4469 18.9339 26.7805 18.7351C26.8325 18.704 26.8845 18.6728 26.9361 18.6417C28.4632 17.7211 30.2141 17.2344 31.999 17.2344C33.7842 17.2344 35.5351 17.7211 37.0622 18.6417C39.2752 19.9758 41.4973 21.0158 43.6708 21.7355V32.4039C43.6708 35.2394 42.7359 37.8908 41.0385 39.8694C38.5948 42.7174 35.5541 44.9509 31.999 46.5099C28.4434 44.9506 25.4028 42.7171 22.9591 39.869C21.2617 37.8904 20.3271 35.2394 20.3271 32.4039V21.7355C21.6246 21.3059 22.9477 20.7588 24.2639 20.108Z" fill="#176FC0"/>
<path d="M31.999 24.4531C30.0607 24.4531 28.4834 26.03 28.4834 27.9687V29.1405H28.249C27.3445 29.1405 26.6084 29.8766 26.6084 30.7812V36.4061C26.6084 37.3107 27.3445 38.0468 28.249 38.0468H35.749C36.6535 38.0468 37.3896 37.3107 37.3896 36.4061V30.7812C37.3896 29.8766 36.6535 29.1405 35.749 29.1405H35.5146V27.9687C35.5146 26.03 33.9377 24.4531 31.999 24.4531ZM29.8896 27.9687C29.8896 26.8056 30.8359 25.8593 31.999 25.8593C33.1621 25.8593 34.1084 26.8056 34.1084 27.9687V29.1405H29.8896V27.9687ZM35.9834 30.7812V36.4061C35.9834 36.5354 35.8783 36.6405 35.749 36.6405H28.249C28.1197 36.6405 28.0146 36.5354 28.0146 36.4061V30.7812C28.0146 30.6519 28.1197 30.5468 28.249 30.5468H35.749C35.8783 30.5468 35.9834 30.6519 35.9834 30.7812Z" fill="#176FC0"/>
<path d="M31.9989 30.7812C30.8358 30.7812 29.8896 31.7274 29.8896 32.8905C29.8896 33.8071 30.4777 34.5886 31.2958 34.879V35.703C31.2958 36.0912 31.6107 36.4061 31.9989 36.4061C32.3875 36.4061 32.702 36.0912 32.702 35.703V34.879C33.5205 34.5886 34.1083 33.8071 34.1083 32.8905C34.1083 31.7274 33.162 30.7812 31.9989 30.7812ZM31.9989 33.5936C31.6111 33.5936 31.2958 33.2783 31.2958 32.8905C31.2958 32.5027 31.6111 32.1874 31.9989 32.1874C32.3867 32.1874 32.702 32.5027 32.702 32.8905C32.702 33.2783 32.3867 33.5936 31.9989 33.5936Z" fill="#176FC0"/>
<path d="M53.8895 28.3906C52.9728 28.3906 52.1913 28.9783 51.9009 29.7968H47.8895V28.9765C47.8895 28.5883 47.5749 28.2734 47.1864 28.2734C46.7982 28.2734 46.4832 28.5883 46.4832 28.9765V32.4042C46.4832 35.9107 45.3077 39.2124 43.1731 41.7008C40.1918 45.175 36.433 47.8169 31.9989 49.5545C28.0347 48.0011 24.6 45.7178 21.789 42.7672C21.5209 42.486 21.076 42.475 20.7947 42.743C20.5139 43.0107 20.5029 43.4557 20.7706 43.7369C21.741 44.7554 22.7825 45.6965 23.8896 46.5611V51.9023C23.0715 52.1923 22.4833 52.9738 22.4833 53.8908C22.4833 55.0539 23.4296 56.0002 24.5927 56.0002C25.7558 56.0002 26.7021 55.0539 26.7021 53.8908C26.7021 52.9742 26.1143 52.1923 25.2958 51.9023V47.5913C27.2257 48.9192 29.3336 50.0306 31.6071 50.9113C31.7338 50.96 31.8663 50.9846 31.9993 50.9846C32.1319 50.9846 32.2644 50.96 32.3904 50.9113C37.0936 49.0898 41.0805 46.2993 44.2406 42.6163C45.7025 40.9124 46.7557 38.8667 47.3446 36.6405H49.7213C50.0117 37.459 50.7932 38.0468 51.7098 38.0468C52.8729 38.0468 53.8191 37.1005 53.8191 35.9374C53.8191 34.7743 52.8729 33.828 51.7098 33.828C50.7932 33.828 50.0117 34.4162 49.7213 35.2343H47.6503C47.8085 34.3114 47.8895 33.3644 47.8895 32.4042V31.203H51.9009C52.1913 32.0215 52.9728 32.6093 53.8895 32.6093C55.0525 32.6093 55.9988 31.663 55.9988 30.4999C55.9988 29.3368 55.0525 28.3906 53.8895 28.3906ZM24.5927 54.5936C24.2049 54.5936 23.8896 54.2783 23.8896 53.8905C23.8896 53.5026 24.2049 53.1873 24.5927 53.1873C24.9805 53.1873 25.2958 53.5026 25.2958 53.8905C25.2958 54.2783 24.9805 54.5936 24.5927 54.5936ZM51.7098 35.2343C52.0976 35.2343 52.4129 35.5496 52.4129 35.9374C52.4129 36.3252 52.0976 36.6405 51.7098 36.6405C51.322 36.6405 51.0067 36.3252 51.0067 35.9374C51.0067 35.5496 51.322 35.2343 51.7098 35.2343ZM53.8895 31.203C53.5016 31.203 53.1863 30.8877 53.1863 30.4999C53.1863 30.1121 53.5016 29.7968 53.8895 29.7968C54.2773 29.7968 54.5926 30.1121 54.5926 30.4999C54.5926 30.8877 54.2773 31.203 53.8895 31.203Z" stroke="#176FC0" stroke-width="0.5"/>
<path d="M17.5146 32.4042V19.6132C20.0938 19.0035 22.7734 17.8671 25.4841 16.2328C29.5025 13.8103 34.4954 13.8103 38.5138 16.2328C39.7201 16.9597 40.9198 17.5877 42.1074 18.1151C42.1206 18.1213 42.1338 18.1275 42.1477 18.1327C43.6155 18.7819 45.0646 19.2778 46.4832 19.6132V25.9684C46.4832 26.357 46.7978 26.6716 47.1864 26.6716C47.5749 26.6716 47.8895 26.357 47.8895 25.9684V19.3551C47.8895 18.8523 47.5431 18.4102 47.0655 18.304C45.7743 18.0169 44.4515 17.5855 43.1083 17.0164V12.0979C43.9267 11.8075 44.5145 11.026 44.5145 10.1094C44.5145 8.94629 43.5682 8 42.4051 8C41.2421 8 40.2958 8.94629 40.2958 10.1094C40.2958 11.026 40.8839 11.8075 41.702 12.0979V16.3745C40.8872 15.9749 40.0658 15.5263 39.24 15.0287C34.7737 12.3359 29.2242 12.3363 24.7582 15.0287C22.0805 16.6425 19.4475 17.7448 16.9323 18.304C16.4548 18.4102 16.1084 18.8523 16.1084 19.3551V23.6093H12.0969C11.8065 22.7908 11.025 22.2031 10.1084 22.2031C8.94531 22.2031 7.99902 23.1494 7.99902 24.3124C7.99902 25.4755 8.94531 26.4218 10.1084 26.4218C11.025 26.4218 11.8065 25.834 12.0969 25.0156H16.1084V29.0468H14.2766C13.9862 28.2283 13.2047 27.6405 12.2881 27.6405C11.125 27.6405 10.1787 28.5868 10.1787 29.7499C10.1787 30.913 11.125 31.8593 12.2881 31.8593C13.2047 31.8593 13.9862 31.2715 14.2766 30.453H16.1084V32.4042C16.1084 35.7741 17.0818 38.9348 18.9227 41.5444C19.0596 41.7385 19.2772 41.8422 19.498 41.8422C19.6379 41.8422 19.7796 41.8004 19.9027 41.7136C20.2198 41.4895 20.2956 41.0508 20.0719 40.7336C18.399 38.3624 17.5146 35.4822 17.5146 32.4042ZM42.4051 9.40624C42.793 9.40624 43.1083 9.72155 43.1083 10.1094C43.1083 10.4972 42.793 10.8125 42.4051 10.8125C42.0173 10.8125 41.702 10.4972 41.702 10.1094C41.702 9.72155 42.0173 9.40624 42.4051 9.40624ZM10.1084 25.0156C9.72057 25.0156 9.40527 24.7003 9.40527 24.3124C9.40527 23.9246 9.72057 23.6093 10.1084 23.6093C10.4962 23.6093 10.8115 23.9246 10.8115 24.3124C10.8115 24.7003 10.4962 25.0156 10.1084 25.0156ZM12.2881 30.453C11.9003 30.453 11.5849 30.1377 11.5849 29.7499C11.5849 29.3621 11.9003 29.0468 12.2881 29.0468C12.6759 29.0468 12.9912 29.3621 12.9912 29.7499C12.9912 30.1377 12.6759 30.453 12.2881 30.453Z" stroke="#176FC0" stroke-width="0.5"/>
<path d="M24.2639 20.108C24.6118 19.9359 24.7546 19.514 24.5825 19.1661C24.4104 18.8182 23.9885 18.6754 23.6402 18.8475C22.3098 19.5056 20.9739 20.0516 19.6702 20.4706C19.2219 20.6145 18.9209 21.0268 18.9209 21.4967V32.4042C18.9209 35.5752 19.9759 38.5514 21.8916 40.7846C24.514 43.841 27.7832 46.2257 31.6086 47.8737C31.7324 47.9271 31.8657 47.9539 31.999 47.9539C32.1323 47.9539 32.2656 47.9271 32.3897 47.8737C36.2148 46.2261 39.4836 43.8413 42.1056 40.7853C44.0216 38.5514 45.077 35.5752 45.077 32.4042V21.4967C45.077 21.0268 44.776 20.6145 44.3278 20.4706C42.1855 19.7825 39.9853 18.7618 37.788 17.4372C36.0419 16.3844 34.0402 15.8281 31.999 15.8281C29.9581 15.8281 27.9564 16.3844 26.2099 17.4372L26.0605 17.527C25.7269 17.7258 25.6178 18.1576 25.8166 18.4912C26.0155 18.8248 26.4469 18.9339 26.7805 18.7351C26.8325 18.704 26.8845 18.6728 26.9361 18.6417C28.4632 17.7211 30.2141 17.2344 31.999 17.2344C33.7842 17.2344 35.5351 17.7211 37.0622 18.6417C39.2752 19.9758 41.4973 21.0158 43.6708 21.7355V32.4039C43.6708 35.2394 42.7359 37.8908 41.0385 39.8694C38.5948 42.7174 35.5541 44.9509 31.999 46.5099C28.4434 44.9506 25.4028 42.7171 22.9591 39.869C21.2617 37.8904 20.3271 35.2394 20.3271 32.4039V21.7355C21.6246 21.3059 22.9477 20.7588 24.2639 20.108Z" stroke="#176FC0" stroke-width="0.5"/>
<path d="M31.999 24.4531C30.0607 24.4531 28.4834 26.03 28.4834 27.9687V29.1405H28.249C27.3445 29.1405 26.6084 29.8766 26.6084 30.7812V36.4061C26.6084 37.3107 27.3445 38.0468 28.249 38.0468H35.749C36.6535 38.0468 37.3896 37.3107 37.3896 36.4061V30.7812C37.3896 29.8766 36.6535 29.1405 35.749 29.1405H35.5146V27.9687C35.5146 26.03 33.9377 24.4531 31.999 24.4531ZM29.8896 27.9687C29.8896 26.8056 30.8359 25.8593 31.999 25.8593C33.1621 25.8593 34.1084 26.8056 34.1084 27.9687V29.1405H29.8896V27.9687ZM35.9834 30.7812V36.4061C35.9834 36.5354 35.8783 36.6405 35.749 36.6405H28.249C28.1197 36.6405 28.0146 36.5354 28.0146 36.4061V30.7812C28.0146 30.6519 28.1197 30.5468 28.249 30.5468H35.749C35.8783 30.5468 35.9834 30.6519 35.9834 30.7812Z" stroke="#176FC0" stroke-width="0.5"/>
<path d="M31.9989 30.7812C30.8358 30.7812 29.8896 31.7274 29.8896 32.8905C29.8896 33.8071 30.4777 34.5886 31.2958 34.879V35.703C31.2958 36.0912 31.6107 36.4061 31.9989 36.4061C32.3875 36.4061 32.702 36.0912 32.702 35.703V34.879C33.5205 34.5886 34.1083 33.8071 34.1083 32.8905C34.1083 31.7274 33.162 30.7812 31.9989 30.7812ZM31.9989 33.5936C31.6111 33.5936 31.2958 33.2783 31.2958 32.8905C31.2958 32.5027 31.6111 32.1874 31.9989 32.1874C32.3867 32.1874 32.702 32.5027 32.702 32.8905C32.702 33.2783 32.3867 33.5936 31.9989 33.5936Z" stroke="#176FC0" stroke-width="0.5"/>
</svg>
