<svg width="64" height="64" viewBox="0 0 64 64" fill="none" xmlns="http://www.w3.org/2000/svg">
<path d="M0 8C0 3.58172 3.58172 0 8 0H56C60.4183 0 64 3.58172 64 8V56C64 60.4183 60.4183 64 56 64H8C3.58172 64 0 60.4183 0 56V8Z" fill="white"/>
<g clip-path="url(#clip0_2774_4331)">
<path d="M46.4082 52.4618H10.5895C9.54721 52.4618 8.70215 51.6169 8.70215 50.5745V49.0003C8.70215 47.4837 9.93159 46.2543 11.4482 46.2543H52.5499C54.0665 46.2543 55.2959 47.4837 55.2959 49.0003V50.5745C55.2959 51.6168 54.4509 52.4618 53.4085 52.4618H49.7321M14.7225 39.139C14.505 42.3278 13.7843 44.8828 12.9673 46.2544M22.054 46.2544C21.2369 44.8828 20.5163 42.3279 20.2988 39.139M51.3385 46.2544V35.7841C51.3385 34.5493 50.3376 33.5483 49.1027 33.5483H31.0597C29.825 33.5483 28.8239 34.5493 28.8239 35.7841V46.2543M42.7654 46.2544V42.1812C42.7654 41.2941 42.0462 40.5749 41.1591 40.5749H39.0035C38.1163 40.5749 37.3971 41.2941 37.3971 42.1812V46.2544M23.716 11.5381H21.5478C19.6853 11.5381 18.1756 13.0479 18.1756 14.9104V31.3056M39.4722 33.5484V14.9104C39.4722 13.048 37.9625 11.5381 36.1001 11.5381H27.0212M32.4493 37.1558H34.1903M39.2111 37.1558H40.9522M45.9728 37.1558H47.7139M22.014 33.9238C21.6675 33.9038 21.3642 33.6928 21.1921 33.3913C20.4625 32.1133 19.0876 31.2516 17.5107 31.2516C15.9342 31.2516 14.5595 32.113 13.8298 33.3904C13.6574 33.6923 13.3536 33.9036 13.0066 33.9237C11.5508 34.0083 10.375 35.2194 10.375 36.719C10.375 38.8501 12.6082 40.0971 14.3723 39.2534C14.7471 39.0742 15.1841 39.0558 15.5524 39.248C16.7769 39.8871 18.2438 39.8876 19.4692 39.2479C19.8375 39.0556 20.2743 39.0742 20.6491 39.2534C22.4136 40.0974 24.6464 38.8488 24.6464 36.719C24.6463 35.217 23.4681 34.0081 22.014 33.9238ZM25.5834 28.6924H22.3839C21.8651 28.6924 21.4445 28.2718 21.4445 27.7529V26.0534C21.4445 25.5346 21.865 25.114 22.3839 25.114H25.5834C26.1022 25.114 26.5229 25.5346 26.5229 26.0534V27.753C26.5229 28.2718 26.1022 28.6924 25.5834 28.6924ZM25.5834 20.399H22.3839C21.8651 20.399 21.4445 19.9783 21.4445 19.4595V17.7599C21.4445 17.2411 21.865 16.8205 22.3839 16.8205H25.5834C26.1022 16.8205 26.5229 17.241 26.5229 17.7599V19.4595C26.5229 19.9783 26.1022 20.399 25.5834 20.399ZM32.0645 28.6924H35.2639C35.7827 28.6924 36.2033 28.2718 36.2033 27.7529V26.0534C36.2033 25.5346 35.7828 25.114 35.2639 25.114H32.0645C31.5456 25.114 31.125 25.5346 31.125 26.0534V27.753C31.125 28.2718 31.5455 28.6924 32.0645 28.6924ZM32.0645 20.399H35.2639C35.7827 20.399 36.2033 19.9783 36.2033 19.4595V17.7599C36.2033 17.2411 35.7828 16.8205 35.2639 16.8205H32.0645C31.5456 16.8205 31.125 17.241 31.125 17.7599V19.4595C31.125 19.9783 31.5455 20.399 32.0645 20.399Z" stroke="#176FC0" stroke-width="2.25" stroke-miterlimit="10" stroke-linecap="round" stroke-linejoin="round"/>
</g>
<defs>
<clipPath id="clip0_2774_4331">
<rect width="48" height="48" fill="white" transform="translate(8 8)"/>
</clipPath>
</defs>
</svg>
