<svg width="64" height="64" viewBox="0 0 64 64" fill="none" xmlns="http://www.w3.org/2000/svg">
<path d="M0 8C0 3.58172 3.58172 0 8 0H56C60.4183 0 64 3.58172 64 8V56C64 60.4183 60.4183 64 56 64H8C3.58172 64 0 60.4183 0 56V8Z" fill="white"/>
<path d="M21.4685 29.5563L17.6313 32.3441M21.4685 29.5563L25.3058 32.3441M21.4685 29.5563L21.4686 26.5221M17.6313 32.3441L19.097 36.855M17.6313 32.3441L14.9286 31.2735M19.097 36.855L23.84 36.8551M19.097 36.855L17.4266 38.9617M23.84 36.8551L25.3058 32.3441M23.84 36.8551L25.5103 38.9617M25.3058 32.3441L28.0084 31.2736M18.3341 24.2448L21.4686 26.5221M21.4686 26.5221L24.5871 24.2564M11.7368 33.5925L14.9286 31.2735M14.9286 31.2735L13.7218 27.5593M18.6458 42.7139L17.4266 38.9617M17.4266 38.9617H13.4812M29.4557 38.9618L25.5103 38.9617M25.5103 38.9617L24.2911 42.714M29.2097 27.5765L28.0084 31.2736M28.0084 31.2736L31.2003 33.5927M52.3972 28.4918V45.3837C52.3972 45.6425 52.1872 45.8525 51.9284 45.8525H35.9628M8.70215 37.3212V21.5149C8.70215 21.2562 8.91215 21.0462 9.1709 21.0462H51.9284C52.1871 21.0462 52.3971 21.2562 52.3971 21.5149V25.2106M8.70215 40.6025V45.3837C8.70215 45.6425 8.91215 45.8525 9.1709 45.8525H32.6815M19.2715 18.1475H54.8272C55.0859 18.1475 55.2959 18.3575 55.2959 18.6162V42.485C55.2959 42.7437 55.0859 42.9537 54.8272 42.9537H52.6737M11.6009 20.8587V18.6162C11.6009 18.3575 11.8109 18.1475 12.0696 18.1475H15.9903M41.2071 24.9497H32.0729M41.2072 28.014H33.9481M41.2072 41.9488H32.0729M41.2072 38.8845H33.9481M44.5174 21.3271V45.5452M48.4664 38.9616V27.9368M31.2238 33.4493C31.2238 38.837 26.8562 43.2046 21.4685 43.2046C16.0808 43.2046 11.7131 38.837 11.7131 33.4493C11.7131 28.0615 16.0808 23.6939 21.4685 23.6939C26.8562 23.6939 31.2238 28.0615 31.2238 33.4493ZM40.7384 35.7561H34.4168C34.158 35.7561 33.9481 35.5462 33.9481 35.2873V31.6112C33.9481 31.3523 34.158 31.1424 34.4168 31.1424H40.7384C40.9973 31.1424 41.2072 31.3523 41.2072 31.6112V35.2873C41.2072 35.5462 40.9973 35.7561 40.7384 35.7561Z" stroke="#176FC0" stroke-width="2" stroke-miterlimit="10" stroke-linecap="round" stroke-linejoin="round"/>
</svg>
